%TF.GenerationSoftware,KiCad,Pcbnew,9.0.0*%
%TF.CreationDate,2025-03-04T10:40:36+01:00*%
%TF.ProjectId,mdbt_lora_board,6d646274-5f6c-46f7-9261-5f626f617264,v0.2*%
%TF.SameCoordinates,Original*%
%TF.FileFunction,Copper,L2,Bot*%
%TF.FilePolarity,Positive*%
%FSLAX46Y46*%
G04 Gerber Fmt 4.6, Leading zero omitted, Abs format (unit mm)*
G04 Created by KiCad (PCBNEW 9.0.0) date 2025-03-04 10:40:36*
%MOMM*%
%LPD*%
G01*
G04 APERTURE LIST*
%TA.AperFunction,ComponentPad*%
%ADD10R,1.350000X1.350000*%
%TD*%
%TA.AperFunction,ComponentPad*%
%ADD11O,1.350000X1.350000*%
%TD*%
%TA.AperFunction,ComponentPad*%
%ADD12C,1.500000*%
%TD*%
%TA.AperFunction,HeatsinkPad*%
%ADD13O,1.700000X1.350000*%
%TD*%
%TA.AperFunction,HeatsinkPad*%
%ADD14O,1.500000X1.100000*%
%TD*%
%TA.AperFunction,ViaPad*%
%ADD15C,0.450000*%
%TD*%
%TA.AperFunction,ViaPad*%
%ADD16C,1.000000*%
%TD*%
%TA.AperFunction,Conductor*%
%ADD17C,0.152400*%
%TD*%
%TA.AperFunction,Conductor*%
%ADD18C,0.800000*%
%TD*%
G04 APERTURE END LIST*
D10*
%TO.P,J2,1,Pin_1*%
%TO.N,GND*%
X107500000Y-62000000D03*
D11*
%TO.P,J2,2,Pin_2*%
%TO.N,+BATT*%
X109500000Y-62000000D03*
%TD*%
D12*
%TO.P,TP5,1,1*%
%TO.N,Net-(C14-Pad1)*%
X115500000Y-97500000D03*
%TD*%
D10*
%TO.P,J3,1,Pin_1*%
%TO.N,GND*%
X123500000Y-62000000D03*
D11*
%TO.P,J3,2,Pin_2*%
%TO.N,VDC*%
X125500000Y-62000000D03*
%TD*%
D12*
%TO.P,TP4,1,1*%
%TO.N,Net-(C12-Pad2)*%
X123500000Y-97500000D03*
%TD*%
%TO.P,TP1,1,1*%
%TO.N,+BATT*%
X113000000Y-62000000D03*
%TD*%
%TO.P,TP3,1,1*%
%TO.N,Net-(C11-Pad2)*%
X132500000Y-97500000D03*
%TD*%
D13*
%TO.P,J1,6,Shield*%
%TO.N,Net-(J1-Shield)*%
X102500000Y-77245000D03*
D14*
X105500000Y-77555000D03*
X105500000Y-82395000D03*
D13*
X102500000Y-82705000D03*
%TD*%
D12*
%TO.P,TP2,1,1*%
%TO.N,VDC*%
X129500000Y-62000000D03*
%TD*%
%TO.P,TP6,1,1*%
%TO.N,/Ampliflying and Filtering/ADC_SENS*%
X107500000Y-97500000D03*
%TD*%
D15*
%TO.N,GND*%
X106347500Y-69652500D03*
X110736800Y-80376400D03*
X163786800Y-78500000D03*
X163786800Y-74049400D03*
X106637200Y-77083000D03*
X106637200Y-81334800D03*
X107595700Y-92021100D03*
%TO.N,+3V3*%
X129546700Y-89958200D03*
X134957400Y-74960000D03*
X134957400Y-79501200D03*
X148443800Y-76225000D03*
X147806100Y-69743700D03*
X148443800Y-86730300D03*
X134957400Y-71719800D03*
X129799900Y-69184600D03*
%TO.N,/MDBT50Q-1MV2 (nRF52840)/ADC_VBAT*%
X166788500Y-66998900D03*
X166788500Y-85325000D03*
D16*
%TO.N,+BATT*%
X117017400Y-87137500D03*
X119463100Y-77846500D03*
D15*
%TO.N,Net-(J4-Pin_1)*%
X120737300Y-92168400D03*
X133534600Y-93500000D03*
%TO.N,Net-(C11-Pad2)*%
X130625400Y-92472300D03*
X111160900Y-93839100D03*
X111248600Y-90981600D03*
%TO.N,Net-(U4A--)*%
X116334600Y-90348900D03*
X109866400Y-91287700D03*
%TO.N,Net-(C12-Pad2)*%
X123941900Y-91779300D03*
%TO.N,Net-(C13-Pad1)*%
X129717300Y-93420500D03*
X129516300Y-98928300D03*
X104005800Y-89620800D03*
X104005800Y-98928300D03*
%TO.N,Net-(C14-Pad1)*%
X111893700Y-91930100D03*
%TO.N,Net-(C15-Pad2)*%
X115498400Y-88965300D03*
X109058800Y-92879100D03*
X120489000Y-88965300D03*
X120489000Y-87812800D03*
%TO.N,Net-(U4B-+)*%
X118923000Y-93405000D03*
X113332700Y-88842300D03*
X109721600Y-95434700D03*
%TO.N,XL2*%
X152882800Y-81500000D03*
X160736700Y-66353700D03*
%TO.N,XL1*%
X155611600Y-65898400D03*
X150400000Y-81500000D03*
D16*
%TO.N,VBUS*%
X163332500Y-71922200D03*
X115833800Y-80893400D03*
X111528800Y-88463400D03*
D15*
%TO.N,/MDBT50Q-1MV2 (nRF52840)/USB_N*%
X113517800Y-79810100D03*
X109329600Y-87079300D03*
X127046500Y-78710800D03*
X141255600Y-71944000D03*
X140247800Y-75584500D03*
X130636600Y-75120700D03*
%TO.N,/MDBT50Q-1MV2 (nRF52840)/USB_P*%
X154236500Y-73508400D03*
X134250600Y-80694200D03*
X134250600Y-78425500D03*
X153127300Y-80178600D03*
%TO.N,NRST*%
X156094400Y-88539400D03*
X140650200Y-80204700D03*
X167849900Y-76864400D03*
X138426200Y-85075000D03*
X167849900Y-72205700D03*
%TO.N,Net-(D4-K)*%
X126266800Y-80586600D03*
X126266800Y-76452700D03*
X126266800Y-65260500D03*
D16*
%TO.N,VDC*%
X121450400Y-79550000D03*
D15*
%TO.N,Net-(D6-K)*%
X119525100Y-75515300D03*
X119187200Y-65967800D03*
%TO.N,SWDIO*%
X173109900Y-74391600D03*
X152029900Y-77100000D03*
%TO.N,SWCLK*%
X174399900Y-60445400D03*
X174399900Y-74500200D03*
X140915300Y-76230000D03*
X143342100Y-60445400D03*
%TO.N,Net-(U5-+)*%
X121019700Y-90068800D03*
X120340200Y-85872000D03*
%TO.N,Net-(U4B--)*%
X110491700Y-92880500D03*
X110491700Y-95742500D03*
%TO.N,/MDBT50Q-1MV2 (nRF52840)/RFM_TX*%
X173607100Y-74971900D03*
X173607100Y-61022800D03*
%TO.N,/MDBT50Q-1MV2 (nRF52840)/RFM_RX*%
X166740900Y-62520000D03*
X171023900Y-72214600D03*
%TO.N,I2C_SCL*%
X172593500Y-73610200D03*
X155161900Y-74004300D03*
X151867900Y-89500000D03*
%TO.N,I2C_SDA*%
X153712700Y-87480000D03*
X140206700Y-67487000D03*
X156360700Y-75960000D03*
X171335800Y-74484700D03*
X140206700Y-73209400D03*
%TO.N,Net-(U9-32KHZ)*%
X148679800Y-74690000D03*
X150212700Y-87612000D03*
%TO.N,RTC_INT*%
X166709300Y-69465900D03*
X151410400Y-77230000D03*
X150339300Y-92160700D03*
%TO.N,Net-(U14-USBDP)*%
X131374700Y-72500000D03*
X132155700Y-74632600D03*
%TO.N,Net-(U14-USBDM)*%
X134292100Y-72500000D03*
X132500000Y-76767200D03*
%TO.N,/Ampliflying and Filtering/ADC_SENS*%
X152039100Y-86343100D03*
X165306200Y-66045400D03*
X112815100Y-88244300D03*
%TO.N,LDO_EN*%
X110538500Y-74414800D03*
X113261000Y-74111800D03*
%TO.N,/MDBT50Q-1MV2 (nRF52840)/RFM_IRQ0*%
X168427400Y-94018100D03*
X169357500Y-74295500D03*
%TO.N,/MDBT50Q-1MV2 (nRF52840)/RFM_IRQ1*%
X169817600Y-73777900D03*
X170595000Y-93977000D03*
%TO.N,/MDBT50Q-1MV2 (nRF52840)/RFM_CLK*%
X165608600Y-72509900D03*
X165608600Y-78394900D03*
%TO.N,/MDBT50Q-1MV2 (nRF52840)/RFM_RST*%
X168572700Y-74496000D03*
X168444000Y-82828300D03*
%TO.N,/MDBT50Q-1MV2 (nRF52840)/RFM_MOSI*%
X166400600Y-78197700D03*
X166273000Y-72054600D03*
%TO.N,/MDBT50Q-1MV2 (nRF52840)/RFM_IRQ2*%
X174890700Y-94516500D03*
X169839700Y-72204600D03*
%TO.N,QSPI_CS*%
X169404700Y-68741300D03*
X161786900Y-69752400D03*
%TO.N,QSPI_SIO0*%
X169871600Y-69448100D03*
X162211800Y-67812200D03*
%TO.N,QSPI_SCLK*%
X154846300Y-65420700D03*
X147727600Y-67984100D03*
X170481700Y-70369400D03*
X163888800Y-65420700D03*
%TO.N,QSPI_SIO3*%
X160155700Y-72312500D03*
X147249600Y-71329000D03*
X146937000Y-69046000D03*
X166568300Y-71398700D03*
%TO.N,QPSI_SIO1*%
X166184300Y-67454200D03*
X163703700Y-68579400D03*
%TO.N,QSPI_SIO2*%
X171678300Y-72215400D03*
X161056500Y-67349300D03*
%TO.N,ALERT_SHT31*%
X162918500Y-74340200D03*
X139121300Y-71545500D03*
X166184100Y-70351600D03*
X136264400Y-69844100D03*
%TO.N,UART_CTS*%
X138682400Y-71076900D03*
X166158900Y-69151900D03*
X160568300Y-71870500D03*
X130556600Y-68690000D03*
%TO.N,UART_RTS*%
X157416000Y-75250000D03*
X166201500Y-68176500D03*
%TD*%
D17*
%TO.N,Net-(J1-Shield)*%
X105500000Y-82395000D02*
X105500000Y-77555000D01*
%TO.N,GND*%
X107500000Y-62000000D02*
X107500000Y-68500000D01*
X163786800Y-78500000D02*
X163786800Y-74049400D01*
X106637200Y-80376400D02*
X106637200Y-81334800D01*
X107500000Y-68500000D02*
X106347500Y-69652500D01*
X106637200Y-69942200D02*
X106637200Y-77083000D01*
X106637200Y-77083000D02*
X106637200Y-80376400D01*
X106637200Y-81334800D02*
X107595700Y-82293300D01*
X106637200Y-80376400D02*
X110736800Y-80376400D01*
X107595700Y-82293300D02*
X107595700Y-92021100D01*
X106347500Y-69652500D02*
X106637200Y-69942200D01*
%TO.N,+3V3*%
X134957400Y-71719800D02*
X132335100Y-71719800D01*
X132335100Y-71719800D02*
X129799900Y-69184600D01*
X134957400Y-79501200D02*
X134957400Y-84547500D01*
X148443800Y-76225000D02*
X148443800Y-86730300D01*
X148443800Y-76225000D02*
X147806100Y-75587300D01*
X134957400Y-84547500D02*
X129546700Y-89958200D01*
X134957400Y-71719800D02*
X134957400Y-74960000D01*
X147806100Y-75587300D02*
X147806100Y-69743700D01*
X134957400Y-74960000D02*
X134957400Y-79501200D01*
%TO.N,/MDBT50Q-1MV2 (nRF52840)/ADC_VBAT*%
X167040200Y-67250600D02*
X166788500Y-66998900D01*
X167164600Y-69654500D02*
X167164600Y-69277300D01*
X167040200Y-85073300D02*
X167040200Y-69778900D01*
X166788500Y-85325000D02*
X167040200Y-85073300D01*
X167040200Y-69778900D02*
X167164600Y-69654500D01*
X167040200Y-69152900D02*
X167040200Y-67250600D01*
X167164600Y-69277300D02*
X167040200Y-69152900D01*
D18*
%TO.N,+BATT*%
X113000000Y-62000000D02*
X113000000Y-71383400D01*
X113000000Y-71383400D02*
X119463100Y-77846500D01*
X117017400Y-80292200D02*
X117017400Y-87137500D01*
X119463100Y-77846500D02*
X117017400Y-80292200D01*
D17*
%TO.N,Net-(J4-Pin_1)*%
X123955400Y-98486100D02*
X130448300Y-91993200D01*
X123093900Y-98486100D02*
X123955400Y-98486100D01*
X120737300Y-96129500D02*
X123093900Y-98486100D01*
X130448300Y-91993200D02*
X132027800Y-91993200D01*
X120737300Y-92168400D02*
X120737300Y-96129500D01*
X132027800Y-91993200D02*
X133534600Y-93500000D01*
%TO.N,Net-(C11-Pad2)*%
X132500000Y-94346900D02*
X130625400Y-92472300D01*
X111160900Y-93839100D02*
X111160900Y-91069300D01*
X111160900Y-91069300D02*
X111248600Y-90981600D01*
X132500000Y-97500000D02*
X132500000Y-94346900D01*
%TO.N,Net-(U4A--)*%
X110846900Y-90197400D02*
X116183100Y-90197400D01*
X116183100Y-90197400D02*
X116334600Y-90348900D01*
X109866400Y-91287700D02*
X109866400Y-91177900D01*
X109866400Y-91177900D02*
X110846900Y-90197400D01*
%TO.N,Net-(C12-Pad2)*%
X123941900Y-97058100D02*
X123941900Y-91779300D01*
X123500000Y-97500000D02*
X123941900Y-97058100D01*
%TO.N,Net-(C13-Pad1)*%
X104005800Y-89620800D02*
X104005800Y-98928300D01*
X129516300Y-98928300D02*
X129516300Y-93621500D01*
X129516300Y-93621500D02*
X129717300Y-93420500D01*
%TO.N,Net-(C14-Pad1)*%
X111893700Y-91930100D02*
X111893700Y-93893700D01*
X111893700Y-93893700D02*
X115500000Y-97500000D01*
%TO.N,Net-(C15-Pad2)*%
X109058800Y-92879100D02*
X109058800Y-91442100D01*
X114727100Y-89736600D02*
X115498400Y-88965300D01*
X109058800Y-91442100D02*
X110764300Y-89736600D01*
X120489000Y-88965300D02*
X120489000Y-87812800D01*
X110764300Y-89736600D02*
X114727100Y-89736600D01*
%TO.N,Net-(U4B-+)*%
X110539600Y-91258400D02*
X110539600Y-91036900D01*
X113332700Y-88842300D02*
X113723900Y-88451100D01*
X116810100Y-89623000D02*
X116810100Y-90827200D01*
X115850400Y-90508500D02*
X116169100Y-90827200D01*
X111068000Y-90508500D02*
X115850400Y-90508500D01*
X109721600Y-95434700D02*
X109721600Y-92076400D01*
X113723900Y-88451100D02*
X115638200Y-88451100D01*
X109721600Y-92076400D02*
X110539600Y-91258400D01*
X110539600Y-91036900D02*
X111068000Y-90508500D01*
X118923000Y-92940100D02*
X118923000Y-93405000D01*
X116810100Y-90827200D02*
X118923000Y-92940100D01*
X115638200Y-88451100D02*
X116810100Y-89623000D01*
X116169100Y-90827200D02*
X116810100Y-90827200D01*
%TO.N,XL2*%
X160736700Y-66353700D02*
X152672000Y-74418400D01*
X152672000Y-81289200D02*
X152882800Y-81500000D01*
X152672000Y-74418400D02*
X152672000Y-81289200D01*
%TO.N,XL1*%
X150400000Y-81500000D02*
X150400000Y-71110000D01*
X150400000Y-71110000D02*
X155611600Y-65898400D01*
D18*
%TO.N,VBUS*%
X163332500Y-71922200D02*
X159177000Y-76077700D01*
X111528800Y-88416100D02*
X111528800Y-88463400D01*
X119188200Y-90858000D02*
X115289400Y-86959200D01*
X115833800Y-80893400D02*
X115289400Y-81437800D01*
X149802900Y-92985800D02*
X147675100Y-90858000D01*
X112985700Y-86959200D02*
X111528800Y-88416100D01*
X115289400Y-86959200D02*
X112985700Y-86959200D01*
X150622800Y-92985800D02*
X149802900Y-92985800D01*
X147675100Y-90858000D02*
X119188200Y-90858000D01*
X115289400Y-81437800D02*
X115289400Y-86959200D01*
X159177000Y-84355100D02*
X155315300Y-88216800D01*
X155315300Y-88216800D02*
X155315300Y-88293300D01*
X155315300Y-88293300D02*
X150622800Y-92985800D01*
X159177000Y-76077700D02*
X159177000Y-84355100D01*
D17*
%TO.N,/MDBT50Q-1MV2 (nRF52840)/USB_N*%
X113517800Y-82891100D02*
X109329600Y-87079300D01*
X130636600Y-75120700D02*
X127046500Y-78710800D01*
X113517800Y-79810100D02*
X113517800Y-82891100D01*
X140247800Y-75584500D02*
X141255600Y-74576700D01*
X141255600Y-74576700D02*
X141255600Y-71944000D01*
%TO.N,/MDBT50Q-1MV2 (nRF52840)/USB_P*%
X153127300Y-80178600D02*
X153127300Y-74617600D01*
X134250600Y-78425500D02*
X134250600Y-80694200D01*
X153127300Y-74617600D02*
X154236500Y-73508400D01*
%TO.N,NRST*%
X138426200Y-82428700D02*
X138426200Y-85075000D01*
X140650200Y-80204700D02*
X138426200Y-82428700D01*
X164219200Y-88539400D02*
X156094400Y-88539400D01*
X167849900Y-72205700D02*
X167849900Y-76864400D01*
X167849900Y-76864400D02*
X167849900Y-84908700D01*
X167849900Y-84908700D02*
X164219200Y-88539400D01*
%TO.N,Net-(D4-K)*%
X126266800Y-76452700D02*
X126266800Y-80586600D01*
X126266800Y-65260500D02*
X126266800Y-76452700D01*
D18*
%TO.N,VDC*%
X125500000Y-63229100D02*
X121450400Y-67278700D01*
X121450400Y-67278700D02*
X121450400Y-79550000D01*
X125500000Y-62000000D02*
X125500000Y-63229100D01*
D17*
%TO.N,Net-(D6-K)*%
X119187200Y-65967800D02*
X119187200Y-75177400D01*
X119187200Y-75177400D02*
X119525100Y-75515300D01*
%TO.N,SWDIO*%
X167022800Y-61699700D02*
X173109900Y-67786800D01*
X173109900Y-67786800D02*
X173109900Y-74391600D01*
X152029900Y-77100000D02*
X152029900Y-74415100D01*
X164745300Y-61699700D02*
X167022800Y-61699700D01*
X152029900Y-74415100D02*
X164745300Y-61699700D01*
%TO.N,SWCLK*%
X174399900Y-74500200D02*
X174399900Y-60445400D01*
X143342100Y-73803200D02*
X140915300Y-76230000D01*
X143342100Y-60445400D02*
X143342100Y-73803200D01*
%TO.N,Net-(U5-+)*%
X120340200Y-85872000D02*
X121019700Y-86551500D01*
X121019700Y-86551500D02*
X121019700Y-90068800D01*
%TO.N,Net-(U4B--)*%
X110491700Y-92880500D02*
X110491700Y-95742500D01*
%TO.N,/MDBT50Q-1MV2 (nRF52840)/RFM_TX*%
X173607100Y-61022800D02*
X173607100Y-74971900D01*
%TO.N,/MDBT50Q-1MV2 (nRF52840)/RFM_RX*%
X171329100Y-71909400D02*
X171329100Y-67108200D01*
X171329100Y-67108200D02*
X166740900Y-62520000D01*
X171023900Y-72214600D02*
X171329100Y-71909400D01*
%TO.N,I2C_SCL*%
X155161900Y-74004300D02*
X153841300Y-75324900D01*
X151562800Y-89194900D02*
X151867900Y-89500000D01*
X170564300Y-71260400D02*
X170946400Y-70878300D01*
X170946400Y-70878300D02*
X170946400Y-68648300D01*
X170564300Y-72448600D02*
X170564300Y-71260400D01*
X171725900Y-73610200D02*
X170564300Y-72448600D01*
X170946400Y-68648300D02*
X167256100Y-64958000D01*
X151562800Y-84577400D02*
X151562800Y-89194900D01*
X163251900Y-65914300D02*
X155161900Y-74004300D01*
X153841300Y-82298900D02*
X151562800Y-84577400D01*
X163251900Y-65369400D02*
X163251900Y-65914300D01*
X153841300Y-75324900D02*
X153841300Y-82298900D01*
X172593500Y-73610200D02*
X171725900Y-73610200D01*
X167256100Y-64958000D02*
X163663300Y-64958000D01*
X163663300Y-64958000D02*
X163251900Y-65369400D01*
%TO.N,I2C_SDA*%
X168927900Y-68494100D02*
X166977400Y-66543600D01*
X163515200Y-68124100D02*
X163248400Y-68390900D01*
X163248400Y-68390900D02*
X163248400Y-68650700D01*
X162627900Y-69555600D02*
X161860200Y-70323300D01*
X161205100Y-70323300D02*
X161158700Y-70276900D01*
X156219300Y-84965900D02*
X156219300Y-84973400D01*
X166135000Y-66807200D02*
X165091900Y-66807200D01*
X158788500Y-72139100D02*
X158788500Y-72572600D01*
X156360700Y-75960000D02*
X156360700Y-84824500D01*
X165091900Y-66807200D02*
X163775000Y-68124100D01*
X156219300Y-84973400D02*
X153712700Y-87480000D01*
X156360700Y-75000400D02*
X156360700Y-75960000D01*
X163775000Y-68124100D02*
X163515200Y-68124100D01*
X166398600Y-66543600D02*
X166135000Y-66807200D01*
X161860200Y-70323300D02*
X161205100Y-70323300D01*
X162627900Y-69271200D02*
X162627900Y-69555600D01*
X161158700Y-70276900D02*
X160650700Y-70276900D01*
X160650700Y-70276900D02*
X158788500Y-72139100D01*
X166977400Y-66543600D02*
X166398600Y-66543600D01*
X158788500Y-72572600D02*
X156360700Y-75000400D01*
X171335800Y-74484700D02*
X168927900Y-72076800D01*
X156360700Y-84824500D02*
X156219300Y-84965900D01*
X140206700Y-67487000D02*
X140206700Y-73209400D01*
X168927900Y-72076800D02*
X168927900Y-68494100D01*
X163248400Y-68650700D02*
X162627900Y-69271200D01*
%TO.N,Net-(U9-32KHZ)*%
X149885900Y-75896100D02*
X148679800Y-74690000D01*
X150212700Y-87612000D02*
X149885900Y-87285200D01*
X149885900Y-87285200D02*
X149885900Y-75896100D01*
%TO.N,RTC_INT*%
X152097300Y-89966000D02*
X151238000Y-89966000D01*
X166368000Y-68664200D02*
X164696600Y-68664200D01*
X166709300Y-69465900D02*
X166709300Y-69005500D01*
X166709300Y-69005500D02*
X166368000Y-68664200D01*
X151410400Y-77230000D02*
X151238000Y-77402400D01*
X159509400Y-72285200D02*
X159509400Y-74327300D01*
X156888400Y-76948300D02*
X156888400Y-85174900D01*
X160752200Y-71042400D02*
X159509400Y-72285200D01*
X156888400Y-85174900D02*
X152097300Y-89966000D01*
X164696600Y-68664200D02*
X163797800Y-69563000D01*
X151238000Y-89966000D02*
X151238000Y-91262000D01*
X162071100Y-71042400D02*
X160752200Y-71042400D01*
X159509400Y-74327300D02*
X156888400Y-76948300D01*
X163550500Y-69563000D02*
X162071100Y-71042400D01*
X163797800Y-69563000D02*
X163550500Y-69563000D01*
X151238000Y-77402400D02*
X151238000Y-89966000D01*
X151238000Y-91262000D02*
X150339300Y-92160700D01*
%TO.N,Net-(U14-USBDP)*%
X132155700Y-73281000D02*
X131374700Y-72500000D01*
X132155700Y-74632600D02*
X132155700Y-73281000D01*
%TO.N,Net-(U14-USBDM)*%
X132500000Y-76767200D02*
X134292100Y-74975100D01*
X134292100Y-74975100D02*
X134292100Y-72500000D01*
%TO.N,/Ampliflying and Filtering/ADC_SENS*%
X111629400Y-89430000D02*
X110637400Y-89430000D01*
X164882200Y-66045400D02*
X163416500Y-67511100D01*
X110637400Y-89430000D02*
X108628600Y-91438800D01*
X112815100Y-88244300D02*
X111629400Y-89430000D01*
X158482000Y-72445600D02*
X154452800Y-76474800D01*
X158482000Y-72012100D02*
X158482000Y-72445600D01*
X165306200Y-66045400D02*
X164882200Y-66045400D01*
X160523700Y-69970400D02*
X158482000Y-72012100D01*
X163261200Y-67511100D02*
X162635400Y-68136900D01*
X162635400Y-68136900D02*
X162635400Y-68292200D01*
X154452800Y-76474800D02*
X154452800Y-83929400D01*
X162635400Y-68292200D02*
X161630500Y-69297100D01*
X163416500Y-67511100D02*
X163261200Y-67511100D01*
X160957200Y-69970400D02*
X160523700Y-69970400D01*
X108628600Y-91872300D02*
X107500000Y-93000900D01*
X107500000Y-93000900D02*
X107500000Y-97500000D01*
X161630500Y-69297100D02*
X161598400Y-69297100D01*
X161331600Y-69596000D02*
X160957200Y-69970400D01*
X161331600Y-69563900D02*
X161331600Y-69596000D01*
X161598400Y-69297100D02*
X161331600Y-69563900D01*
X108628600Y-91438800D02*
X108628600Y-91872300D01*
X154452800Y-83929400D02*
X152039100Y-86343100D01*
%TO.N,LDO_EN*%
X113261000Y-74111800D02*
X110841500Y-74111800D01*
X110841500Y-74111800D02*
X110538500Y-74414800D01*
%TO.N,/MDBT50Q-1MV2 (nRF52840)/RFM_IRQ0*%
X169357500Y-93088000D02*
X169357500Y-74295500D01*
X168427400Y-94018100D02*
X169357500Y-93088000D01*
%TO.N,/MDBT50Q-1MV2 (nRF52840)/RFM_IRQ1*%
X170595000Y-74555300D02*
X169817600Y-73777900D01*
X170595000Y-93977000D02*
X170595000Y-74555300D01*
%TO.N,/MDBT50Q-1MV2 (nRF52840)/RFM_CLK*%
X165608600Y-78394900D02*
X165608600Y-72509900D01*
%TO.N,/MDBT50Q-1MV2 (nRF52840)/RFM_RST*%
X168444000Y-74624700D02*
X168572700Y-74496000D01*
X168444000Y-82828300D02*
X168444000Y-74624700D01*
%TO.N,/MDBT50Q-1MV2 (nRF52840)/RFM_MOSI*%
X166400600Y-72182200D02*
X166400600Y-78197700D01*
X166273000Y-72054600D02*
X166400600Y-72182200D01*
%TO.N,/MDBT50Q-1MV2 (nRF52840)/RFM_IRQ2*%
X174890700Y-77255600D02*
X174890700Y-94516500D01*
X169839700Y-72204600D02*
X174890700Y-77255600D01*
%TO.N,QSPI_CS*%
X169404700Y-68741300D02*
X169404700Y-68505500D01*
X161805000Y-69770500D02*
X161786900Y-69752400D01*
X163388200Y-67817600D02*
X162941900Y-68263900D01*
X164948400Y-66500700D02*
X163631500Y-67817600D01*
X163631500Y-67817600D02*
X163388200Y-67817600D01*
X166008000Y-66500700D02*
X164948400Y-66500700D01*
X161805000Y-69644100D02*
X161805000Y-69770500D01*
X167098000Y-66198800D02*
X166309900Y-66198800D01*
X169404700Y-68505500D02*
X167098000Y-66198800D01*
X162941900Y-68263900D02*
X162941900Y-68507200D01*
X166309900Y-66198800D02*
X166008000Y-66500700D01*
X162941900Y-68507200D02*
X161805000Y-69644100D01*
%TO.N,QSPI_SIO0*%
X166918400Y-65585700D02*
X164438300Y-65585700D01*
X164438300Y-65585700D02*
X162211800Y-67812200D01*
X169871600Y-68538900D02*
X166918400Y-65585700D01*
X169871600Y-69448100D02*
X169871600Y-68538900D01*
%TO.N,QSPI_SCLK*%
X170481700Y-68715500D02*
X167045400Y-65279200D01*
X152282900Y-67984100D02*
X154846300Y-65420700D01*
X170481700Y-70369400D02*
X170481700Y-68715500D01*
X164030300Y-65279200D02*
X163888800Y-65420700D01*
X147727600Y-67984100D02*
X152282900Y-67984100D01*
X167045400Y-65279200D02*
X164030300Y-65279200D01*
%TO.N,QSPI_SIO3*%
X166641800Y-70142100D02*
X166641800Y-71325200D01*
X162356600Y-71655400D02*
X162836600Y-71175400D01*
X162836600Y-71175400D02*
X162836600Y-71173200D01*
X160155700Y-72312500D02*
X160187600Y-72344400D01*
X164159400Y-70283900D02*
X164547100Y-69896200D01*
X146937000Y-69046000D02*
X146937000Y-71016400D01*
X163725900Y-70283900D02*
X164159400Y-70283900D01*
X161665400Y-72344400D02*
X162354400Y-71655400D01*
X160187600Y-72344400D02*
X161665400Y-72344400D01*
X166395900Y-69896200D02*
X166641800Y-70142100D01*
X146937000Y-71016400D02*
X147249600Y-71329000D01*
X162836600Y-71173200D02*
X163725900Y-70283900D01*
X164547100Y-69896200D02*
X166395900Y-69896200D01*
X166641800Y-71325200D02*
X166568300Y-71398700D01*
X162354400Y-71655400D02*
X162356600Y-71655400D01*
%TO.N,QPSI_SIO1*%
X165154100Y-67454200D02*
X164773800Y-67834500D01*
X164773800Y-67834500D02*
X164659300Y-67834500D01*
X164659300Y-67834500D02*
X163809100Y-68684700D01*
X166184300Y-67454200D02*
X165154100Y-67454200D01*
X163809100Y-68684700D02*
X163703700Y-68579400D01*
%TO.N,QSPI_SIO2*%
X171678300Y-66788700D02*
X166946600Y-62057000D01*
X161056500Y-67119500D02*
X161056500Y-67349300D01*
X171678300Y-72215400D02*
X171678300Y-66788700D01*
X166946600Y-62057000D02*
X166119000Y-62057000D01*
X166119000Y-62057000D02*
X161056500Y-67119500D01*
%TO.N,ALERT_SHT31*%
X136264400Y-69844100D02*
X137965800Y-71545500D01*
X162918500Y-73617200D02*
X162918500Y-74340200D01*
X166184100Y-70351600D02*
X162918500Y-73617200D01*
X137965800Y-71545500D02*
X139121300Y-71545500D01*
%TO.N,UART_CTS*%
X161705800Y-71870500D02*
X162227400Y-71348900D01*
X162530100Y-71048400D02*
X162530100Y-71046200D01*
X162229600Y-71348900D02*
X162530100Y-71048400D01*
X136295500Y-68690000D02*
X138682400Y-71076900D01*
X160568300Y-71870500D02*
X161705800Y-71870500D01*
X162530100Y-71046200D02*
X163598900Y-69977400D01*
X164857800Y-69151900D02*
X166158900Y-69151900D01*
X130556600Y-68690000D02*
X136295500Y-68690000D01*
X163598900Y-69977400D02*
X164032300Y-69977400D01*
X164032300Y-69977400D02*
X164857800Y-69151900D01*
X162227400Y-71348900D02*
X162229600Y-71348900D01*
%TO.N,UART_RTS*%
X161031700Y-70583400D02*
X160777700Y-70583400D01*
X163670800Y-69256500D02*
X163360500Y-69256500D01*
X165040300Y-68141000D02*
X164786300Y-68141000D01*
X165184300Y-68176500D02*
X165130100Y-68230700D01*
X160777700Y-70583400D02*
X159095000Y-72266100D01*
X163360500Y-69256500D02*
X161917100Y-70699900D01*
X166201500Y-68176500D02*
X165184300Y-68176500D01*
X159095000Y-72699600D02*
X157416000Y-74378600D01*
X157416000Y-74378600D02*
X157416000Y-75250000D01*
X161184200Y-70735900D02*
X161031700Y-70583400D01*
X165130100Y-68230700D02*
X165040300Y-68141000D01*
X159095000Y-72266100D02*
X159095000Y-72699600D01*
X161917100Y-70699900D02*
X161917100Y-70735900D01*
X164786300Y-68141000D02*
X163670800Y-69256500D01*
X161917100Y-70735900D02*
X161184200Y-70735900D01*
%TD*%
%TA.AperFunction,Conductor*%
%TO.N,GND*%
G36*
X142945469Y-60095185D02*
G01*
X142991224Y-60147989D01*
X143001168Y-60217147D01*
X142985817Y-60261500D01*
X142968894Y-60290810D01*
X142968893Y-60290813D01*
X142941600Y-60392673D01*
X142941600Y-60498126D01*
X142968893Y-60599986D01*
X142968894Y-60599989D01*
X143021621Y-60691314D01*
X143076681Y-60746374D01*
X143110166Y-60807697D01*
X143113000Y-60834055D01*
X143113000Y-73656940D01*
X143093315Y-73723979D01*
X143076681Y-73744621D01*
X141028121Y-75793181D01*
X141008196Y-75804060D01*
X140990901Y-75818768D01*
X140975112Y-75822125D01*
X140966798Y-75826666D01*
X140956946Y-75828397D01*
X140948734Y-75829500D01*
X140862573Y-75829500D01*
X140775980Y-75852702D01*
X140768089Y-75853762D01*
X140741109Y-75849626D01*
X140713826Y-75848977D01*
X140707078Y-75844410D01*
X140699026Y-75843176D01*
X140678568Y-75825113D01*
X140655963Y-75809814D01*
X140652755Y-75802323D01*
X140646649Y-75796932D01*
X140639203Y-75770673D01*
X140628460Y-75745585D01*
X140629190Y-75735365D01*
X140627588Y-75729713D01*
X140630213Y-75721070D01*
X140631807Y-75698779D01*
X140648300Y-75637227D01*
X140648300Y-75559358D01*
X140667985Y-75492319D01*
X140684619Y-75471677D01*
X141065797Y-75090499D01*
X141449821Y-74706475D01*
X141458685Y-74685075D01*
X141484700Y-74622271D01*
X141484700Y-72332655D01*
X141504385Y-72265616D01*
X141521019Y-72244974D01*
X141534529Y-72231464D01*
X141576080Y-72189913D01*
X141628807Y-72098587D01*
X141656100Y-71996727D01*
X141656100Y-71891273D01*
X141628807Y-71789413D01*
X141576080Y-71698087D01*
X141501513Y-71623520D01*
X141410187Y-71570793D01*
X141308327Y-71543500D01*
X141202873Y-71543500D01*
X141101013Y-71570793D01*
X141101010Y-71570794D01*
X141009685Y-71623521D01*
X140935121Y-71698085D01*
X140882394Y-71789410D01*
X140882393Y-71789413D01*
X140855100Y-71891273D01*
X140855100Y-71996727D01*
X140882393Y-72098587D01*
X140934835Y-72189420D01*
X140935121Y-72189914D01*
X140990181Y-72244974D01*
X141023666Y-72306297D01*
X141026500Y-72332655D01*
X141026500Y-74430440D01*
X141006815Y-74497479D01*
X140990181Y-74518121D01*
X140360621Y-75147681D01*
X140299298Y-75181166D01*
X140272940Y-75184000D01*
X140195073Y-75184000D01*
X140093213Y-75211293D01*
X140093210Y-75211294D01*
X140001885Y-75264021D01*
X139927321Y-75338585D01*
X139874594Y-75429910D01*
X139874593Y-75429913D01*
X139847300Y-75531773D01*
X139847300Y-75637227D01*
X139874593Y-75739087D01*
X139927320Y-75830413D01*
X140001887Y-75904980D01*
X140093213Y-75957707D01*
X140195073Y-75985000D01*
X140195075Y-75985000D01*
X140300524Y-75985000D01*
X140300527Y-75985000D01*
X140379426Y-75963859D01*
X140449272Y-75965522D01*
X140507134Y-76004684D01*
X140534639Y-76068912D01*
X140531290Y-76115727D01*
X140514800Y-76177273D01*
X140514800Y-76282727D01*
X140540754Y-76379587D01*
X140542093Y-76384586D01*
X140542094Y-76384589D01*
X140547524Y-76393994D01*
X140594820Y-76475913D01*
X140669387Y-76550480D01*
X140760713Y-76603207D01*
X140862573Y-76630500D01*
X140862575Y-76630500D01*
X140968025Y-76630500D01*
X140968027Y-76630500D01*
X141069887Y-76603207D01*
X141161213Y-76550480D01*
X141235780Y-76475913D01*
X141288507Y-76384587D01*
X141315800Y-76282727D01*
X141315800Y-76204858D01*
X141335485Y-76137819D01*
X141352119Y-76117177D01*
X142436197Y-75033099D01*
X143536321Y-73932975D01*
X143540746Y-73922293D01*
X143571200Y-73848771D01*
X143571200Y-68993273D01*
X146536500Y-68993273D01*
X146536500Y-69098727D01*
X146549576Y-69147525D01*
X146563793Y-69200586D01*
X146563794Y-69200589D01*
X146616521Y-69291914D01*
X146671581Y-69346974D01*
X146705066Y-69408297D01*
X146707900Y-69434655D01*
X146707900Y-71061971D01*
X146708919Y-71064430D01*
X146742778Y-71146175D01*
X146821028Y-71224425D01*
X146827590Y-71234060D01*
X146834886Y-71256661D01*
X146846266Y-71277501D01*
X146848588Y-71299103D01*
X146849056Y-71300551D01*
X146848834Y-71301387D01*
X146849100Y-71303859D01*
X146849100Y-71381727D01*
X146874549Y-71476703D01*
X146876393Y-71483586D01*
X146876394Y-71483589D01*
X146889331Y-71505997D01*
X146929120Y-71574913D01*
X147003687Y-71649480D01*
X147095013Y-71702207D01*
X147196873Y-71729500D01*
X147196875Y-71729500D01*
X147302325Y-71729500D01*
X147302327Y-71729500D01*
X147404187Y-71702207D01*
X147404197Y-71702201D01*
X147405544Y-71701644D01*
X147406784Y-71701510D01*
X147412038Y-71700103D01*
X147412257Y-71700922D01*
X147475013Y-71694173D01*
X147537493Y-71725446D01*
X147573147Y-71785534D01*
X147577000Y-71816204D01*
X147577000Y-75632871D01*
X147579754Y-75639520D01*
X147592332Y-75669886D01*
X147611877Y-75717074D01*
X148006981Y-76112178D01*
X148040466Y-76173501D01*
X148043300Y-76199859D01*
X148043300Y-76277727D01*
X148070593Y-76379587D01*
X148110618Y-76448913D01*
X148123321Y-76470914D01*
X148178381Y-76525974D01*
X148211866Y-76587297D01*
X148214700Y-76613655D01*
X148214700Y-86341645D01*
X148195015Y-86408684D01*
X148178381Y-86429326D01*
X148123321Y-86484385D01*
X148070594Y-86575710D01*
X148070593Y-86575713D01*
X148043300Y-86677573D01*
X148043300Y-86783027D01*
X148070593Y-86884887D01*
X148123320Y-86976213D01*
X148197887Y-87050780D01*
X148289213Y-87103507D01*
X148391073Y-87130800D01*
X148391075Y-87130800D01*
X148496525Y-87130800D01*
X148496527Y-87130800D01*
X148598387Y-87103507D01*
X148689713Y-87050780D01*
X148764280Y-86976213D01*
X148817007Y-86884887D01*
X148844300Y-86783027D01*
X148844300Y-86677573D01*
X148817007Y-86575713D01*
X148764280Y-86484387D01*
X148709219Y-86429326D01*
X148675734Y-86368003D01*
X148672900Y-86341645D01*
X148672900Y-76613655D01*
X148692585Y-76546616D01*
X148709219Y-76525974D01*
X148729768Y-76505425D01*
X148764280Y-76470913D01*
X148817007Y-76379587D01*
X148844300Y-76277727D01*
X148844300Y-76172273D01*
X148817007Y-76070413D01*
X148764280Y-75979087D01*
X148689713Y-75904520D01*
X148607047Y-75856793D01*
X148598389Y-75851794D01*
X148598388Y-75851793D01*
X148598387Y-75851793D01*
X148496527Y-75824500D01*
X148418659Y-75824500D01*
X148351620Y-75804815D01*
X148330978Y-75788181D01*
X148071519Y-75528722D01*
X148038034Y-75467399D01*
X148035200Y-75441041D01*
X148035200Y-70132355D01*
X148054885Y-70065316D01*
X148071519Y-70044674D01*
X148076980Y-70039213D01*
X148126580Y-69989613D01*
X148179307Y-69898287D01*
X148206600Y-69796427D01*
X148206600Y-69690973D01*
X148179307Y-69589113D01*
X148126580Y-69497787D01*
X148052013Y-69423220D01*
X147960687Y-69370493D01*
X147858827Y-69343200D01*
X147753373Y-69343200D01*
X147651513Y-69370493D01*
X147651510Y-69370494D01*
X147560185Y-69423221D01*
X147485621Y-69497785D01*
X147432894Y-69589110D01*
X147432893Y-69589113D01*
X147405600Y-69690973D01*
X147405600Y-69796427D01*
X147425428Y-69870426D01*
X147432893Y-69898286D01*
X147432894Y-69898289D01*
X147485621Y-69989614D01*
X147540681Y-70044674D01*
X147574166Y-70105997D01*
X147577000Y-70132355D01*
X147577000Y-70841795D01*
X147557315Y-70908834D01*
X147504511Y-70954589D01*
X147435353Y-70964533D01*
X147405555Y-70956359D01*
X147404193Y-70955795D01*
X147404188Y-70955793D01*
X147404187Y-70955793D01*
X147302327Y-70928500D01*
X147290100Y-70928500D01*
X147223061Y-70908815D01*
X147177306Y-70856011D01*
X147166100Y-70804500D01*
X147166100Y-69434655D01*
X147185785Y-69367616D01*
X147202419Y-69346974D01*
X147226796Y-69322597D01*
X147257480Y-69291913D01*
X147310207Y-69200587D01*
X147337500Y-69098727D01*
X147337500Y-68993273D01*
X147310207Y-68891413D01*
X147257480Y-68800087D01*
X147182913Y-68725520D01*
X147091587Y-68672793D01*
X146989727Y-68645500D01*
X146884273Y-68645500D01*
X146782413Y-68672793D01*
X146782410Y-68672794D01*
X146691085Y-68725521D01*
X146616521Y-68800085D01*
X146563794Y-68891410D01*
X146563793Y-68891413D01*
X146536500Y-68993273D01*
X143571200Y-68993273D01*
X143571200Y-60834055D01*
X143590885Y-60767016D01*
X143607519Y-60746374D01*
X143662580Y-60691313D01*
X143715307Y-60599987D01*
X143742600Y-60498127D01*
X143742600Y-60392673D01*
X143715307Y-60290813D01*
X143698382Y-60261499D01*
X143681910Y-60193600D01*
X143704762Y-60127573D01*
X143759683Y-60084383D01*
X143805770Y-60075500D01*
X173936230Y-60075500D01*
X174003269Y-60095185D01*
X174049024Y-60147989D01*
X174058968Y-60217147D01*
X174043617Y-60261500D01*
X174026694Y-60290810D01*
X174026693Y-60290813D01*
X173999400Y-60392673D01*
X173999400Y-60498126D01*
X174013437Y-60550513D01*
X174011774Y-60620363D01*
X173972611Y-60678225D01*
X173908383Y-60705729D01*
X173839481Y-60694142D01*
X173831662Y-60689993D01*
X173761689Y-60649594D01*
X173761688Y-60649593D01*
X173761687Y-60649593D01*
X173659827Y-60622300D01*
X173554373Y-60622300D01*
X173452513Y-60649593D01*
X173452510Y-60649594D01*
X173361185Y-60702321D01*
X173286621Y-60776885D01*
X173233894Y-60868210D01*
X173233893Y-60868213D01*
X173206600Y-60970073D01*
X173206600Y-61075527D01*
X173233893Y-61177387D01*
X173285241Y-61266325D01*
X173286621Y-61268714D01*
X173341681Y-61323774D01*
X173375166Y-61385097D01*
X173378000Y-61411455D01*
X173378000Y-67431541D01*
X173358315Y-67498580D01*
X173305511Y-67544335D01*
X173236353Y-67554279D01*
X173172797Y-67525254D01*
X173166319Y-67519222D01*
X167152575Y-61505478D01*
X167152573Y-61505477D01*
X167093033Y-61480815D01*
X167093032Y-61480814D01*
X167068371Y-61470600D01*
X164699729Y-61470600D01*
X164699728Y-61470600D01*
X164675068Y-61480812D01*
X164675069Y-61480813D01*
X164615526Y-61505477D01*
X164615523Y-61505479D01*
X151835680Y-74285322D01*
X151835675Y-74285330D01*
X151813921Y-74337851D01*
X151813921Y-74337853D01*
X151800800Y-74369528D01*
X151800800Y-76711344D01*
X151792153Y-76740789D01*
X151785631Y-76770772D01*
X151781877Y-76775785D01*
X151781115Y-76778383D01*
X151764480Y-76799026D01*
X151722116Y-76841389D01*
X151660793Y-76874874D01*
X151591101Y-76869888D01*
X151572438Y-76861095D01*
X151564987Y-76856793D01*
X151463127Y-76829500D01*
X151357673Y-76829500D01*
X151255813Y-76856793D01*
X151255810Y-76856794D01*
X151164485Y-76909521D01*
X151089921Y-76984085D01*
X151037194Y-77075410D01*
X151037193Y-77075413D01*
X151009900Y-77177273D01*
X151009900Y-77282726D01*
X151009901Y-77282734D01*
X151010669Y-77285601D01*
X151010609Y-77288114D01*
X151010961Y-77290788D01*
X151010544Y-77290842D01*
X151009267Y-77344450D01*
X151011283Y-77344851D01*
X151008900Y-77356831D01*
X151008900Y-81291036D01*
X150989215Y-81358075D01*
X150936411Y-81403830D01*
X150867253Y-81413774D01*
X150803697Y-81384749D01*
X150784913Y-81364375D01*
X150774474Y-81350143D01*
X150773207Y-81345413D01*
X150720480Y-81254087D01*
X150658716Y-81192323D01*
X150653113Y-81184684D01*
X150644318Y-81160383D01*
X150631934Y-81137703D01*
X150630168Y-81121285D01*
X150629336Y-81118984D01*
X150629733Y-81117238D01*
X150629100Y-81111345D01*
X150629100Y-71256257D01*
X150648785Y-71189218D01*
X150665414Y-71168581D01*
X155498776Y-66335218D01*
X155560099Y-66301734D01*
X155586457Y-66298900D01*
X155664325Y-66298900D01*
X155664327Y-66298900D01*
X155766187Y-66271607D01*
X155857513Y-66218880D01*
X155932080Y-66144313D01*
X155984807Y-66052987D01*
X156012100Y-65951127D01*
X156012100Y-65845673D01*
X155984807Y-65743813D01*
X155932080Y-65652487D01*
X155857513Y-65577920D01*
X155766187Y-65525193D01*
X155664327Y-65497900D01*
X155558873Y-65497900D01*
X155457013Y-65525193D01*
X155457012Y-65525193D01*
X155432799Y-65539173D01*
X155364899Y-65555645D01*
X155298872Y-65532792D01*
X155255682Y-65477870D01*
X155246800Y-65431785D01*
X155246800Y-65367975D01*
X155246800Y-65367973D01*
X155219507Y-65266113D01*
X155166780Y-65174787D01*
X155092213Y-65100220D01*
X155000887Y-65047493D01*
X154899027Y-65020200D01*
X154793573Y-65020200D01*
X154691713Y-65047493D01*
X154691710Y-65047494D01*
X154600385Y-65100221D01*
X154525821Y-65174785D01*
X154473094Y-65266110D01*
X154473093Y-65266113D01*
X154445800Y-65367973D01*
X154445800Y-65445840D01*
X154426115Y-65512879D01*
X154409481Y-65533521D01*
X152224322Y-67718681D01*
X152162999Y-67752166D01*
X152136641Y-67755000D01*
X148116255Y-67755000D01*
X148049216Y-67735315D01*
X148028574Y-67718681D01*
X147973514Y-67663621D01*
X147973513Y-67663620D01*
X147882187Y-67610893D01*
X147780327Y-67583600D01*
X147674873Y-67583600D01*
X147573013Y-67610893D01*
X147573010Y-67610894D01*
X147481685Y-67663621D01*
X147407121Y-67738185D01*
X147354394Y-67829510D01*
X147354393Y-67829513D01*
X147327100Y-67931373D01*
X147327100Y-68036827D01*
X147354393Y-68138687D01*
X147407120Y-68230013D01*
X147481687Y-68304580D01*
X147573013Y-68357307D01*
X147674873Y-68384600D01*
X147674875Y-68384600D01*
X147780325Y-68384600D01*
X147780327Y-68384600D01*
X147882187Y-68357307D01*
X147973513Y-68304580D01*
X148028574Y-68249519D01*
X148089897Y-68216034D01*
X148116255Y-68213200D01*
X152328470Y-68213200D01*
X152328471Y-68213200D01*
X152368356Y-68196679D01*
X152412675Y-68178322D01*
X154733477Y-65857518D01*
X154794800Y-65824034D01*
X154821158Y-65821200D01*
X154899025Y-65821200D01*
X154899027Y-65821200D01*
X155000887Y-65793907D01*
X155025100Y-65779927D01*
X155031000Y-65778495D01*
X155035589Y-65774520D01*
X155064553Y-65770355D01*
X155092998Y-65763454D01*
X155098736Y-65765440D01*
X155104747Y-65764576D01*
X155131367Y-65776733D01*
X155159025Y-65786305D01*
X155162778Y-65791078D01*
X155168303Y-65793601D01*
X155184126Y-65818222D01*
X155202217Y-65841226D01*
X155203633Y-65848577D01*
X155206077Y-65852379D01*
X155211100Y-65887314D01*
X155211100Y-65923541D01*
X155191415Y-65990580D01*
X155174781Y-66011222D01*
X150205780Y-70980222D01*
X150205777Y-70980227D01*
X150188973Y-71020798D01*
X150188972Y-71020801D01*
X150170900Y-71064428D01*
X150170900Y-75557741D01*
X150151215Y-75624780D01*
X150098411Y-75670535D01*
X150029253Y-75680479D01*
X149965697Y-75651454D01*
X149959219Y-75645422D01*
X149116619Y-74802822D01*
X149083134Y-74741499D01*
X149080300Y-74715141D01*
X149080300Y-74637275D01*
X149080300Y-74637273D01*
X149053007Y-74535413D01*
X149000280Y-74444087D01*
X148925713Y-74369520D01*
X148848221Y-74324780D01*
X148834389Y-74316794D01*
X148834388Y-74316793D01*
X148834387Y-74316793D01*
X148732527Y-74289500D01*
X148627073Y-74289500D01*
X148525213Y-74316793D01*
X148525210Y-74316794D01*
X148433885Y-74369521D01*
X148359321Y-74444085D01*
X148306594Y-74535410D01*
X148306593Y-74535413D01*
X148279300Y-74637273D01*
X148279300Y-74742727D01*
X148306593Y-74844587D01*
X148359320Y-74935913D01*
X148433887Y-75010480D01*
X148525213Y-75063207D01*
X148627073Y-75090500D01*
X148627075Y-75090500D01*
X148704941Y-75090500D01*
X148771980Y-75110185D01*
X148792622Y-75126819D01*
X149620481Y-75954678D01*
X149653966Y-76016001D01*
X149656800Y-76042359D01*
X149656800Y-87330768D01*
X149656801Y-87330773D01*
X149691675Y-87414969D01*
X149691676Y-87414971D01*
X149691678Y-87414975D01*
X149691680Y-87414977D01*
X149775881Y-87499178D01*
X149809366Y-87560501D01*
X149812200Y-87586859D01*
X149812200Y-87664727D01*
X149839151Y-87765308D01*
X149839493Y-87766586D01*
X149839494Y-87766589D01*
X149844275Y-87774869D01*
X149892220Y-87857913D01*
X149966787Y-87932480D01*
X150058113Y-87985207D01*
X150159973Y-88012500D01*
X150159975Y-88012500D01*
X150265425Y-88012500D01*
X150265427Y-88012500D01*
X150367287Y-87985207D01*
X150458613Y-87932480D01*
X150533180Y-87857913D01*
X150585907Y-87766587D01*
X150613200Y-87664727D01*
X150613200Y-87559273D01*
X150585907Y-87457413D01*
X150533180Y-87366087D01*
X150458613Y-87291520D01*
X150367287Y-87238793D01*
X150265427Y-87211500D01*
X150239000Y-87211500D01*
X150171961Y-87191815D01*
X150126206Y-87139011D01*
X150115000Y-87087500D01*
X150115000Y-81999862D01*
X150134685Y-81932823D01*
X150187489Y-81887068D01*
X150256647Y-81877124D01*
X150271076Y-81880083D01*
X150347273Y-81900500D01*
X150347276Y-81900500D01*
X150452725Y-81900500D01*
X150452727Y-81900500D01*
X150554587Y-81873207D01*
X150645913Y-81820480D01*
X150720480Y-81745913D01*
X150773207Y-81654587D01*
X150773207Y-81654586D01*
X150777271Y-81647548D01*
X150780226Y-81649254D01*
X150814133Y-81607139D01*
X150880417Y-81585044D01*
X150948124Y-81602292D01*
X150995758Y-81653408D01*
X151008900Y-81708963D01*
X151008900Y-91115740D01*
X150989215Y-91182779D01*
X150972581Y-91203421D01*
X150452121Y-91723881D01*
X150390798Y-91757366D01*
X150364440Y-91760200D01*
X150286573Y-91760200D01*
X150184713Y-91787493D01*
X150184710Y-91787494D01*
X150093385Y-91840221D01*
X150018821Y-91914785D01*
X149966094Y-92006110D01*
X149966094Y-92006111D01*
X149966093Y-92006113D01*
X149946222Y-92080274D01*
X149945401Y-92083339D01*
X149909036Y-92142999D01*
X149846189Y-92173528D01*
X149776813Y-92165233D01*
X149737945Y-92138926D01*
X148124600Y-90525582D01*
X148124598Y-90525579D01*
X148014590Y-90415571D01*
X148014582Y-90415565D01*
X147946626Y-90376331D01*
X147946622Y-90376329D01*
X147937729Y-90371195D01*
X147888512Y-90342779D01*
X147783767Y-90314713D01*
X147777978Y-90313162D01*
X147777968Y-90313158D01*
X147747892Y-90305100D01*
X147747891Y-90305100D01*
X130023649Y-90305100D01*
X129956610Y-90285415D01*
X129910855Y-90232611D01*
X129900911Y-90163453D01*
X129916263Y-90119099D01*
X129917168Y-90117530D01*
X129919907Y-90112787D01*
X129947200Y-90010927D01*
X129947200Y-89933058D01*
X129966885Y-89866019D01*
X129983519Y-89845377D01*
X134806623Y-85022273D01*
X138025700Y-85022273D01*
X138025700Y-85127727D01*
X138052993Y-85229587D01*
X138105720Y-85320913D01*
X138180287Y-85395480D01*
X138271613Y-85448207D01*
X138373473Y-85475500D01*
X138373475Y-85475500D01*
X138478925Y-85475500D01*
X138478927Y-85475500D01*
X138580787Y-85448207D01*
X138672113Y-85395480D01*
X138746680Y-85320913D01*
X138799407Y-85229587D01*
X138826700Y-85127727D01*
X138826700Y-85022273D01*
X138799407Y-84920413D01*
X138746680Y-84829087D01*
X138691619Y-84774026D01*
X138658134Y-84712703D01*
X138655300Y-84686345D01*
X138655300Y-82574958D01*
X138674985Y-82507919D01*
X138691614Y-82487282D01*
X140537377Y-80641518D01*
X140598700Y-80608034D01*
X140625058Y-80605200D01*
X140702925Y-80605200D01*
X140702927Y-80605200D01*
X140804787Y-80577907D01*
X140896113Y-80525180D01*
X140970680Y-80450613D01*
X141023407Y-80359287D01*
X141050700Y-80257427D01*
X141050700Y-80151973D01*
X141023407Y-80050113D01*
X140970680Y-79958787D01*
X140896113Y-79884220D01*
X140829259Y-79845622D01*
X140804789Y-79831494D01*
X140804788Y-79831493D01*
X140804787Y-79831493D01*
X140702927Y-79804200D01*
X140597473Y-79804200D01*
X140495613Y-79831493D01*
X140495610Y-79831494D01*
X140404285Y-79884221D01*
X140329721Y-79958785D01*
X140276994Y-80050110D01*
X140276993Y-80050113D01*
X140249700Y-80151973D01*
X140249700Y-80229840D01*
X140230015Y-80296879D01*
X140213381Y-80317521D01*
X138231980Y-82298922D01*
X138231977Y-82298927D01*
X138220860Y-82325768D01*
X138220859Y-82325771D01*
X138197100Y-82383128D01*
X138197100Y-84686345D01*
X138177415Y-84753384D01*
X138160781Y-84774026D01*
X138105721Y-84829085D01*
X138052994Y-84920410D01*
X138052993Y-84920413D01*
X138025700Y-85022273D01*
X134806623Y-85022273D01*
X134902431Y-84926465D01*
X135019729Y-84809167D01*
X135151621Y-84677275D01*
X135186500Y-84593070D01*
X135186500Y-84501930D01*
X135186500Y-79889855D01*
X135206185Y-79822816D01*
X135222819Y-79802174D01*
X135248532Y-79776461D01*
X135277880Y-79747113D01*
X135330607Y-79655787D01*
X135357900Y-79553927D01*
X135357900Y-79448473D01*
X135330607Y-79346613D01*
X135277880Y-79255287D01*
X135222819Y-79200226D01*
X135189334Y-79138903D01*
X135186500Y-79112545D01*
X135186500Y-75348655D01*
X135206185Y-75281616D01*
X135222819Y-75260974D01*
X135250272Y-75233521D01*
X135277880Y-75205913D01*
X135330607Y-75114587D01*
X135357900Y-75012727D01*
X135357900Y-74907273D01*
X135330607Y-74805413D01*
X135277880Y-74714087D01*
X135222819Y-74659026D01*
X135189334Y-74597703D01*
X135186500Y-74571345D01*
X135186500Y-72108455D01*
X135206185Y-72041416D01*
X135222819Y-72020774D01*
X135246868Y-71996725D01*
X135277880Y-71965713D01*
X135330607Y-71874387D01*
X135357900Y-71772527D01*
X135357900Y-71667073D01*
X135330607Y-71565213D01*
X135277880Y-71473887D01*
X135203313Y-71399320D01*
X135111987Y-71346593D01*
X135010127Y-71319300D01*
X134904673Y-71319300D01*
X134802813Y-71346593D01*
X134802810Y-71346594D01*
X134711485Y-71399321D01*
X134656426Y-71454381D01*
X134595103Y-71487866D01*
X134568745Y-71490700D01*
X132481359Y-71490700D01*
X132414320Y-71471015D01*
X132393678Y-71454381D01*
X130236719Y-69297422D01*
X130222015Y-69270494D01*
X130205423Y-69244676D01*
X130204531Y-69238475D01*
X130203234Y-69236099D01*
X130200400Y-69209741D01*
X130200400Y-69161579D01*
X130220085Y-69094540D01*
X130272889Y-69048785D01*
X130342047Y-69038841D01*
X130386400Y-69054193D01*
X130402013Y-69063207D01*
X130503873Y-69090500D01*
X130503875Y-69090500D01*
X130609325Y-69090500D01*
X130609327Y-69090500D01*
X130711187Y-69063207D01*
X130802513Y-69010480D01*
X130857574Y-68955419D01*
X130918897Y-68921934D01*
X130945255Y-68919100D01*
X136149241Y-68919100D01*
X136216280Y-68938785D01*
X136236922Y-68955419D01*
X136547349Y-69265846D01*
X136580834Y-69327169D01*
X136575850Y-69396861D01*
X136533978Y-69452794D01*
X136468514Y-69477211D01*
X136427488Y-69470569D01*
X136426838Y-69472997D01*
X136418988Y-69470893D01*
X136418987Y-69470893D01*
X136317127Y-69443600D01*
X136211673Y-69443600D01*
X136109813Y-69470893D01*
X136109810Y-69470894D01*
X136018485Y-69523621D01*
X135943921Y-69598185D01*
X135891194Y-69689510D01*
X135891193Y-69689513D01*
X135863900Y-69791373D01*
X135863900Y-69896827D01*
X135891193Y-69998687D01*
X135943920Y-70090013D01*
X136018487Y-70164580D01*
X136109813Y-70217307D01*
X136211673Y-70244600D01*
X136211675Y-70244600D01*
X136289541Y-70244600D01*
X136356580Y-70264285D01*
X136377222Y-70280919D01*
X137836025Y-71739722D01*
X137836030Y-71739724D01*
X137895566Y-71764385D01*
X137895567Y-71764385D01*
X137920226Y-71774599D01*
X137920227Y-71774599D01*
X137920229Y-71774600D01*
X137920230Y-71774600D01*
X138011370Y-71774600D01*
X138732645Y-71774600D01*
X138799684Y-71794285D01*
X138820326Y-71810919D01*
X138875387Y-71865980D01*
X138966713Y-71918707D01*
X139068573Y-71946000D01*
X139068575Y-71946000D01*
X139174025Y-71946000D01*
X139174027Y-71946000D01*
X139275887Y-71918707D01*
X139367213Y-71865980D01*
X139441780Y-71791413D01*
X139494507Y-71700087D01*
X139521800Y-71598227D01*
X139521800Y-71492773D01*
X139494507Y-71390913D01*
X139441780Y-71299587D01*
X139367213Y-71225020D01*
X139275889Y-71172294D01*
X139275888Y-71172293D01*
X139225531Y-71158800D01*
X139174805Y-71145208D01*
X139115146Y-71108844D01*
X139084617Y-71045997D01*
X139082900Y-71025434D01*
X139082900Y-71024175D01*
X139082900Y-71024173D01*
X139055607Y-70922313D01*
X139002880Y-70830987D01*
X138928313Y-70756420D01*
X138836987Y-70703693D01*
X138735127Y-70676400D01*
X138657258Y-70676400D01*
X138590219Y-70656715D01*
X138569577Y-70640081D01*
X137515930Y-69586434D01*
X136425275Y-68495778D01*
X136362987Y-68469978D01*
X136362986Y-68469977D01*
X136341075Y-68460901D01*
X136341071Y-68460900D01*
X136341070Y-68460900D01*
X130945255Y-68460900D01*
X130878216Y-68441215D01*
X130857574Y-68424581D01*
X130802514Y-68369521D01*
X130802513Y-68369520D01*
X130711187Y-68316793D01*
X130609327Y-68289500D01*
X130503873Y-68289500D01*
X130402013Y-68316793D01*
X130402010Y-68316794D01*
X130310685Y-68369521D01*
X130236121Y-68444085D01*
X130183394Y-68535410D01*
X130183393Y-68535413D01*
X130156100Y-68637273D01*
X130156100Y-68713020D01*
X130136415Y-68780059D01*
X130083611Y-68825814D01*
X130014453Y-68835758D01*
X129970100Y-68820407D01*
X129954489Y-68811394D01*
X129954488Y-68811393D01*
X129954487Y-68811393D01*
X129852627Y-68784100D01*
X129747173Y-68784100D01*
X129645313Y-68811393D01*
X129645310Y-68811394D01*
X129553985Y-68864121D01*
X129479421Y-68938685D01*
X129426694Y-69030010D01*
X129426693Y-69030013D01*
X129399400Y-69131873D01*
X129399400Y-69237327D01*
X129426693Y-69339187D01*
X129479420Y-69430513D01*
X129553987Y-69505080D01*
X129645313Y-69557807D01*
X129747173Y-69585100D01*
X129747175Y-69585100D01*
X129825041Y-69585100D01*
X129892080Y-69604785D01*
X129912722Y-69621419D01*
X132205325Y-71914022D01*
X132216636Y-71918707D01*
X132255003Y-71934599D01*
X132255006Y-71934600D01*
X132257872Y-71935787D01*
X132289526Y-71948899D01*
X132289527Y-71948899D01*
X132289529Y-71948900D01*
X132289530Y-71948900D01*
X132380670Y-71948900D01*
X133982860Y-71948900D01*
X134049899Y-71968585D01*
X134095654Y-72021389D01*
X134105598Y-72090547D01*
X134076573Y-72154103D01*
X134052301Y-72174142D01*
X134052633Y-72174574D01*
X134046187Y-72179519D01*
X133971621Y-72254085D01*
X133918894Y-72345410D01*
X133918893Y-72345413D01*
X133891600Y-72447273D01*
X133891600Y-72552727D01*
X133918893Y-72654587D01*
X133955854Y-72718606D01*
X133971621Y-72745914D01*
X134026681Y-72800974D01*
X134060166Y-72862297D01*
X134063000Y-72888655D01*
X134063000Y-74828840D01*
X134043315Y-74895879D01*
X134026681Y-74916521D01*
X132612821Y-76330381D01*
X132551498Y-76363866D01*
X132525140Y-76366700D01*
X132447273Y-76366700D01*
X132345413Y-76393993D01*
X132345410Y-76393994D01*
X132254085Y-76446721D01*
X132179521Y-76521285D01*
X132126794Y-76612610D01*
X132126793Y-76612613D01*
X132099500Y-76714473D01*
X132099500Y-76819927D01*
X132126793Y-76921787D01*
X132179520Y-77013113D01*
X132254087Y-77087680D01*
X132345413Y-77140407D01*
X132447273Y-77167700D01*
X132447275Y-77167700D01*
X132552725Y-77167700D01*
X132552727Y-77167700D01*
X132654587Y-77140407D01*
X132745913Y-77087680D01*
X132820480Y-77013113D01*
X132873207Y-76921787D01*
X132900500Y-76819927D01*
X132900500Y-76742058D01*
X132920185Y-76675019D01*
X132936819Y-76654377D01*
X133686676Y-75904520D01*
X134430548Y-75160648D01*
X134491869Y-75127165D01*
X134561561Y-75132149D01*
X134612337Y-75167589D01*
X134619848Y-75176344D01*
X134636920Y-75205913D01*
X134695329Y-75264322D01*
X134698410Y-75267913D01*
X134710901Y-75295624D01*
X134725466Y-75322297D01*
X134726261Y-75329699D01*
X134727123Y-75331610D01*
X134726742Y-75334168D01*
X134728300Y-75348655D01*
X134728300Y-78037445D01*
X134708615Y-78104484D01*
X134655811Y-78150239D01*
X134586653Y-78160183D01*
X134523097Y-78131158D01*
X134516619Y-78125126D01*
X134496514Y-78105021D01*
X134496513Y-78105020D01*
X134405187Y-78052293D01*
X134303327Y-78025000D01*
X134197873Y-78025000D01*
X134096013Y-78052293D01*
X134096010Y-78052294D01*
X134004685Y-78105021D01*
X133930121Y-78179585D01*
X133877394Y-78270910D01*
X133877393Y-78270913D01*
X133850100Y-78372773D01*
X133850100Y-78478227D01*
X133874934Y-78570907D01*
X133877393Y-78580086D01*
X133877394Y-78580089D01*
X133891522Y-78604559D01*
X133899639Y-78618619D01*
X133930121Y-78671414D01*
X133985181Y-78726474D01*
X134018666Y-78787797D01*
X134021500Y-78814155D01*
X134021500Y-80305545D01*
X134001815Y-80372584D01*
X133985181Y-80393226D01*
X133930121Y-80448285D01*
X133877394Y-80539610D01*
X133877393Y-80539613D01*
X133850100Y-80641473D01*
X133850100Y-80746927D01*
X133877393Y-80848787D01*
X133930120Y-80940113D01*
X134004687Y-81014680D01*
X134096013Y-81067407D01*
X134197873Y-81094700D01*
X134197875Y-81094700D01*
X134303325Y-81094700D01*
X134303327Y-81094700D01*
X134405187Y-81067407D01*
X134496513Y-81014680D01*
X134516619Y-80994574D01*
X134577942Y-80961089D01*
X134647634Y-80966073D01*
X134703567Y-81007945D01*
X134727984Y-81073409D01*
X134728300Y-81082255D01*
X134728300Y-84401240D01*
X134708615Y-84468279D01*
X134691981Y-84488921D01*
X129659521Y-89521381D01*
X129598198Y-89554866D01*
X129571840Y-89557700D01*
X129493973Y-89557700D01*
X129392113Y-89584993D01*
X129392110Y-89584994D01*
X129300785Y-89637721D01*
X129226221Y-89712285D01*
X129173494Y-89803610D01*
X129173493Y-89803613D01*
X129146200Y-89905473D01*
X129146200Y-90010927D01*
X129147580Y-90016075D01*
X129173493Y-90112786D01*
X129173495Y-90112791D01*
X129177137Y-90119099D01*
X129193611Y-90186999D01*
X129170759Y-90253026D01*
X129115839Y-90296217D01*
X129069751Y-90305100D01*
X121532611Y-90305100D01*
X121465572Y-90285415D01*
X121419817Y-90232611D01*
X121409873Y-90163453D01*
X121412831Y-90149026D01*
X121420200Y-90121527D01*
X121420200Y-90016073D01*
X121392907Y-89914213D01*
X121340180Y-89822887D01*
X121285119Y-89767826D01*
X121251634Y-89706503D01*
X121248800Y-89680145D01*
X121248800Y-86505930D01*
X121248799Y-86505926D01*
X121238584Y-86481265D01*
X121238584Y-86481264D01*
X121213924Y-86421730D01*
X121213922Y-86421725D01*
X120777019Y-85984822D01*
X120743534Y-85923499D01*
X120740700Y-85897141D01*
X120740700Y-85819275D01*
X120740700Y-85819273D01*
X120713407Y-85717413D01*
X120660680Y-85626087D01*
X120586113Y-85551520D01*
X120494787Y-85498793D01*
X120392927Y-85471500D01*
X120287473Y-85471500D01*
X120185613Y-85498793D01*
X120185610Y-85498794D01*
X120094285Y-85551521D01*
X120019721Y-85626085D01*
X119966994Y-85717410D01*
X119966993Y-85717413D01*
X119939700Y-85819273D01*
X119939700Y-85924727D01*
X119966993Y-86026587D01*
X120019720Y-86117913D01*
X120094287Y-86192480D01*
X120185613Y-86245207D01*
X120287473Y-86272500D01*
X120287475Y-86272500D01*
X120365341Y-86272500D01*
X120432380Y-86292185D01*
X120453022Y-86308819D01*
X120754281Y-86610078D01*
X120787766Y-86671401D01*
X120790600Y-86697759D01*
X120790600Y-87317385D01*
X120770915Y-87384424D01*
X120718111Y-87430179D01*
X120648953Y-87440123D01*
X120634507Y-87437160D01*
X120608453Y-87430179D01*
X120541727Y-87412300D01*
X120436273Y-87412300D01*
X120334413Y-87439593D01*
X120334410Y-87439594D01*
X120243085Y-87492321D01*
X120168521Y-87566885D01*
X120115794Y-87658210D01*
X120115793Y-87658213D01*
X120088500Y-87760073D01*
X120088500Y-87865527D01*
X120115793Y-87967387D01*
X120161871Y-88047197D01*
X120168521Y-88058714D01*
X120223581Y-88113774D01*
X120257066Y-88175097D01*
X120259900Y-88201455D01*
X120259900Y-88576645D01*
X120240215Y-88643684D01*
X120223581Y-88664326D01*
X120168521Y-88719385D01*
X120115794Y-88810710D01*
X120115793Y-88810713D01*
X120088500Y-88912573D01*
X120088500Y-89018027D01*
X120115793Y-89119887D01*
X120168520Y-89211213D01*
X120243087Y-89285780D01*
X120334413Y-89338507D01*
X120436273Y-89365800D01*
X120436275Y-89365800D01*
X120541724Y-89365800D01*
X120541727Y-89365800D01*
X120634510Y-89340939D01*
X120659501Y-89341534D01*
X120684247Y-89337976D01*
X120693827Y-89342351D01*
X120704356Y-89342602D01*
X120725060Y-89356614D01*
X120747803Y-89367001D01*
X120753496Y-89375860D01*
X120762219Y-89381764D01*
X120772060Y-89404747D01*
X120785577Y-89425779D01*
X120787856Y-89441634D01*
X120789723Y-89445993D01*
X120790600Y-89460714D01*
X120790600Y-89680145D01*
X120770915Y-89747184D01*
X120754281Y-89767826D01*
X120699221Y-89822885D01*
X120646494Y-89914210D01*
X120646493Y-89914213D01*
X120619200Y-90016073D01*
X120619200Y-90121527D01*
X120626563Y-90149009D01*
X120624901Y-90218855D01*
X120585739Y-90276718D01*
X120521511Y-90304223D01*
X120506789Y-90305100D01*
X119468580Y-90305100D01*
X119401541Y-90285415D01*
X119380899Y-90268781D01*
X117096286Y-87984168D01*
X117062801Y-87922845D01*
X117067785Y-87853153D01*
X117109657Y-87797220D01*
X117159773Y-87774870D01*
X117207844Y-87765309D01*
X117326664Y-87716092D01*
X117433599Y-87644640D01*
X117524540Y-87553699D01*
X117595992Y-87446764D01*
X117645209Y-87327944D01*
X117653419Y-87286665D01*
X117670300Y-87201807D01*
X117670300Y-87073192D01*
X117645210Y-86947061D01*
X117645209Y-86947060D01*
X117645209Y-86947056D01*
X117595992Y-86828236D01*
X117591196Y-86821059D01*
X117570320Y-86754382D01*
X117570300Y-86752170D01*
X117570300Y-80572579D01*
X117589985Y-80505540D01*
X117606614Y-80484903D01*
X118477210Y-79614307D01*
X120797499Y-79614307D01*
X120822589Y-79740438D01*
X120822591Y-79740444D01*
X120871806Y-79859261D01*
X120871811Y-79859270D01*
X120943259Y-79966198D01*
X120943262Y-79966202D01*
X121034197Y-80057137D01*
X121034201Y-80057140D01*
X121141129Y-80128588D01*
X121141135Y-80128591D01*
X121141136Y-80128592D01*
X121259956Y-80177809D01*
X121259960Y-80177809D01*
X121259961Y-80177810D01*
X121386092Y-80202900D01*
X121386095Y-80202900D01*
X121514707Y-80202900D01*
X121599565Y-80186019D01*
X121640844Y-80177809D01*
X121759664Y-80128592D01*
X121866599Y-80057140D01*
X121957540Y-79966199D01*
X122028992Y-79859264D01*
X122078209Y-79740444D01*
X122103300Y-79614305D01*
X122103300Y-79485695D01*
X122103300Y-79485692D01*
X122078210Y-79359561D01*
X122078209Y-79359560D01*
X122078209Y-79359556D01*
X122028992Y-79240736D01*
X122024196Y-79233559D01*
X122003320Y-79166882D01*
X122003300Y-79164670D01*
X122003300Y-67559080D01*
X122022985Y-67492041D01*
X122039619Y-67471399D01*
X124303246Y-65207773D01*
X125866300Y-65207773D01*
X125866300Y-65313227D01*
X125893593Y-65415087D01*
X125938101Y-65492178D01*
X125946321Y-65506414D01*
X126001381Y-65561474D01*
X126034866Y-65622797D01*
X126037700Y-65649155D01*
X126037700Y-76064045D01*
X126018015Y-76131084D01*
X126001381Y-76151726D01*
X125946321Y-76206785D01*
X125893594Y-76298110D01*
X125893593Y-76298113D01*
X125866300Y-76399973D01*
X125866300Y-76505427D01*
X125892500Y-76603205D01*
X125893593Y-76607286D01*
X125893594Y-76607289D01*
X125900059Y-76618487D01*
X125944650Y-76695721D01*
X125946321Y-76698614D01*
X126001381Y-76753674D01*
X126034866Y-76814997D01*
X126037700Y-76841355D01*
X126037700Y-80197945D01*
X126018015Y-80264984D01*
X126001381Y-80285626D01*
X125946321Y-80340685D01*
X125893594Y-80432010D01*
X125893593Y-80432013D01*
X125866300Y-80533873D01*
X125866300Y-80639327D01*
X125893593Y-80741187D01*
X125946320Y-80832513D01*
X126020887Y-80907080D01*
X126112213Y-80959807D01*
X126214073Y-80987100D01*
X126214075Y-80987100D01*
X126319525Y-80987100D01*
X126319527Y-80987100D01*
X126421387Y-80959807D01*
X126512713Y-80907080D01*
X126587280Y-80832513D01*
X126640007Y-80741187D01*
X126667300Y-80639327D01*
X126667300Y-80533873D01*
X126640007Y-80432013D01*
X126587280Y-80340687D01*
X126532219Y-80285626D01*
X126498734Y-80224303D01*
X126495900Y-80197945D01*
X126495900Y-79020906D01*
X126515585Y-78953867D01*
X126568389Y-78908112D01*
X126637547Y-78898168D01*
X126701103Y-78927193D01*
X126720510Y-78950699D01*
X126721074Y-78950267D01*
X126726019Y-78956712D01*
X126726020Y-78956713D01*
X126800587Y-79031280D01*
X126891913Y-79084007D01*
X126993773Y-79111300D01*
X126993775Y-79111300D01*
X127099225Y-79111300D01*
X127099227Y-79111300D01*
X127201087Y-79084007D01*
X127292413Y-79031280D01*
X127366980Y-78956713D01*
X127419707Y-78865387D01*
X127447000Y-78763527D01*
X127447000Y-78685658D01*
X127466685Y-78618619D01*
X127483319Y-78597977D01*
X130523777Y-75557519D01*
X130585100Y-75524034D01*
X130611458Y-75521200D01*
X130689325Y-75521200D01*
X130689327Y-75521200D01*
X130791187Y-75493907D01*
X130882513Y-75441180D01*
X130957080Y-75366613D01*
X131009807Y-75275287D01*
X131037100Y-75173427D01*
X131037100Y-75067973D01*
X131009807Y-74966113D01*
X130957080Y-74874787D01*
X130882513Y-74800220D01*
X130808139Y-74757280D01*
X130791189Y-74747494D01*
X130791188Y-74747493D01*
X130791187Y-74747493D01*
X130689327Y-74720200D01*
X130583873Y-74720200D01*
X130482013Y-74747493D01*
X130482010Y-74747494D01*
X130390685Y-74800221D01*
X130316121Y-74874785D01*
X130263394Y-74966110D01*
X130263393Y-74966113D01*
X130236100Y-75067973D01*
X130236100Y-75145840D01*
X130216415Y-75212879D01*
X130199781Y-75233521D01*
X127159321Y-78273981D01*
X127097998Y-78307466D01*
X127071640Y-78310300D01*
X126993773Y-78310300D01*
X126891913Y-78337593D01*
X126891910Y-78337594D01*
X126800585Y-78390321D01*
X126726019Y-78464887D01*
X126721074Y-78471333D01*
X126719496Y-78470122D01*
X126676715Y-78510911D01*
X126608107Y-78524131D01*
X126543244Y-78498160D01*
X126502718Y-78441244D01*
X126495900Y-78400693D01*
X126495900Y-76841355D01*
X126515585Y-76774316D01*
X126532219Y-76753674D01*
X126556201Y-76729692D01*
X126587280Y-76698613D01*
X126640007Y-76607287D01*
X126667300Y-76505427D01*
X126667300Y-76399973D01*
X126640007Y-76298113D01*
X126587280Y-76206787D01*
X126532219Y-76151726D01*
X126498734Y-76090403D01*
X126495900Y-76064045D01*
X126495900Y-72447273D01*
X130974200Y-72447273D01*
X130974200Y-72552727D01*
X131001493Y-72654587D01*
X131054220Y-72745913D01*
X131128787Y-72820480D01*
X131220113Y-72873207D01*
X131321973Y-72900500D01*
X131321975Y-72900500D01*
X131399841Y-72900500D01*
X131466880Y-72920185D01*
X131487522Y-72936819D01*
X131890281Y-73339577D01*
X131923766Y-73400900D01*
X131926600Y-73427258D01*
X131926600Y-74243945D01*
X131906915Y-74310984D01*
X131890281Y-74331626D01*
X131835221Y-74386685D01*
X131782494Y-74478010D01*
X131782493Y-74478013D01*
X131755200Y-74579873D01*
X131755200Y-74685327D01*
X131776497Y-74764807D01*
X131782493Y-74787186D01*
X131782494Y-74787189D01*
X131788316Y-74797273D01*
X131835220Y-74878513D01*
X131909787Y-74953080D01*
X132001113Y-75005807D01*
X132102973Y-75033100D01*
X132102975Y-75033100D01*
X132208425Y-75033100D01*
X132208427Y-75033100D01*
X132310287Y-75005807D01*
X132401613Y-74953080D01*
X132476180Y-74878513D01*
X132528907Y-74787187D01*
X132556200Y-74685327D01*
X132556200Y-74579873D01*
X132528907Y-74478013D01*
X132476180Y-74386687D01*
X132421119Y-74331626D01*
X132387634Y-74270303D01*
X132384800Y-74243945D01*
X132384800Y-73235430D01*
X132384800Y-73235429D01*
X132365121Y-73187920D01*
X132349922Y-73151226D01*
X132086480Y-72887784D01*
X131811519Y-72612822D01*
X131778034Y-72551499D01*
X131775200Y-72525141D01*
X131775200Y-72447275D01*
X131775200Y-72447273D01*
X131747907Y-72345413D01*
X131695180Y-72254087D01*
X131620613Y-72179520D01*
X131529287Y-72126793D01*
X131427427Y-72099500D01*
X131321973Y-72099500D01*
X131220113Y-72126793D01*
X131220110Y-72126794D01*
X131128785Y-72179521D01*
X131054221Y-72254085D01*
X131001494Y-72345410D01*
X131001493Y-72345413D01*
X130974200Y-72447273D01*
X126495900Y-72447273D01*
X126495900Y-67434273D01*
X139806200Y-67434273D01*
X139806200Y-67539727D01*
X139833493Y-67641587D01*
X139878227Y-67719069D01*
X139886221Y-67732914D01*
X139941281Y-67787974D01*
X139974766Y-67849297D01*
X139977600Y-67875655D01*
X139977600Y-72820745D01*
X139957915Y-72887784D01*
X139941281Y-72908426D01*
X139886221Y-72963485D01*
X139833494Y-73054810D01*
X139833493Y-73054813D01*
X139806200Y-73156673D01*
X139806200Y-73262127D01*
X139833493Y-73363987D01*
X139886220Y-73455313D01*
X139960787Y-73529880D01*
X140052113Y-73582607D01*
X140153973Y-73609900D01*
X140153975Y-73609900D01*
X140259425Y-73609900D01*
X140259427Y-73609900D01*
X140361287Y-73582607D01*
X140452613Y-73529880D01*
X140527180Y-73455313D01*
X140579907Y-73363987D01*
X140607200Y-73262127D01*
X140607200Y-73156673D01*
X140579907Y-73054813D01*
X140527180Y-72963487D01*
X140472119Y-72908426D01*
X140438634Y-72847103D01*
X140435800Y-72820745D01*
X140435800Y-67875655D01*
X140455485Y-67808616D01*
X140472119Y-67787974D01*
X140496677Y-67763416D01*
X140527180Y-67732913D01*
X140579907Y-67641587D01*
X140607200Y-67539727D01*
X140607200Y-67434273D01*
X140579907Y-67332413D01*
X140527180Y-67241087D01*
X140452613Y-67166520D01*
X140364817Y-67115831D01*
X140361289Y-67113794D01*
X140361288Y-67113793D01*
X140361287Y-67113793D01*
X140259427Y-67086500D01*
X140153973Y-67086500D01*
X140052113Y-67113793D01*
X140052110Y-67113794D01*
X139960785Y-67166521D01*
X139886221Y-67241085D01*
X139833494Y-67332410D01*
X139833493Y-67332413D01*
X139806200Y-67434273D01*
X126495900Y-67434273D01*
X126495900Y-65649155D01*
X126515585Y-65582116D01*
X126532219Y-65561474D01*
X126554520Y-65539173D01*
X126587280Y-65506413D01*
X126640007Y-65415087D01*
X126667300Y-65313227D01*
X126667300Y-65207773D01*
X126640007Y-65105913D01*
X126587280Y-65014587D01*
X126512713Y-64940020D01*
X126421387Y-64887293D01*
X126319527Y-64860000D01*
X126214073Y-64860000D01*
X126112213Y-64887293D01*
X126112210Y-64887294D01*
X126020885Y-64940021D01*
X125946321Y-65014585D01*
X125893594Y-65105910D01*
X125893593Y-65105913D01*
X125866300Y-65207773D01*
X124303246Y-65207773D01*
X124399054Y-65111965D01*
X124993800Y-64517219D01*
X125942430Y-63568589D01*
X126015220Y-63442512D01*
X126015221Y-63442511D01*
X126052900Y-63301891D01*
X126052900Y-62669290D01*
X126072585Y-62602251D01*
X126089220Y-62581608D01*
X126143069Y-62527759D01*
X126143072Y-62527756D01*
X126233676Y-62392158D01*
X126296084Y-62241490D01*
X126327900Y-62081541D01*
X126327900Y-61918459D01*
X126327900Y-61918456D01*
X126327899Y-61918455D01*
X126326430Y-61911072D01*
X126326429Y-61911067D01*
X128597100Y-61911067D01*
X128597100Y-62088932D01*
X128631795Y-62263358D01*
X128631798Y-62263367D01*
X128699857Y-62427679D01*
X128699858Y-62427681D01*
X128798671Y-62575564D01*
X128798674Y-62575568D01*
X128924431Y-62701325D01*
X128924435Y-62701328D01*
X129072316Y-62800140D01*
X129072317Y-62800140D01*
X129072318Y-62800141D01*
X129072320Y-62800142D01*
X129139333Y-62827899D01*
X129236634Y-62868202D01*
X129236636Y-62868202D01*
X129236641Y-62868204D01*
X129411067Y-62902899D01*
X129411070Y-62902900D01*
X129411072Y-62902900D01*
X129588930Y-62902900D01*
X129588931Y-62902899D01*
X129647074Y-62891334D01*
X129763358Y-62868204D01*
X129763361Y-62868202D01*
X129763366Y-62868202D01*
X129927684Y-62800140D01*
X130075565Y-62701328D01*
X130201328Y-62575565D01*
X130300140Y-62427684D01*
X130368202Y-62263366D01*
X130368202Y-62263361D01*
X130368204Y-62263358D01*
X130402899Y-62088932D01*
X130402900Y-62088930D01*
X130402900Y-61911069D01*
X130402899Y-61911067D01*
X130368204Y-61736641D01*
X130368201Y-61736632D01*
X130300142Y-61572320D01*
X130300141Y-61572318D01*
X130201328Y-61424435D01*
X130201325Y-61424431D01*
X130075568Y-61298674D01*
X130075564Y-61298671D01*
X129927681Y-61199858D01*
X129927679Y-61199857D01*
X129763367Y-61131798D01*
X129763358Y-61131795D01*
X129588931Y-61097100D01*
X129588928Y-61097100D01*
X129411072Y-61097100D01*
X129411069Y-61097100D01*
X129236641Y-61131795D01*
X129236632Y-61131798D01*
X129072320Y-61199857D01*
X129072318Y-61199858D01*
X128924435Y-61298671D01*
X128924431Y-61298674D01*
X128798674Y-61424431D01*
X128798671Y-61424435D01*
X128699858Y-61572318D01*
X128699857Y-61572320D01*
X128631798Y-61736632D01*
X128631795Y-61736641D01*
X128597100Y-61911067D01*
X126326429Y-61911067D01*
X126313409Y-61845606D01*
X126296086Y-61758517D01*
X126296083Y-61758508D01*
X126292559Y-61750000D01*
X126233676Y-61607842D01*
X126233674Y-61607840D01*
X126233674Y-61607838D01*
X126143072Y-61472244D01*
X126143069Y-61472240D01*
X126027759Y-61356930D01*
X126027755Y-61356927D01*
X125892161Y-61266325D01*
X125892158Y-61266324D01*
X125741491Y-61203916D01*
X125741482Y-61203913D01*
X125581544Y-61172100D01*
X125581541Y-61172100D01*
X125418459Y-61172100D01*
X125418456Y-61172100D01*
X125258517Y-61203913D01*
X125258508Y-61203916D01*
X125107841Y-61266324D01*
X125107838Y-61266325D01*
X124972244Y-61356927D01*
X124972240Y-61356930D01*
X124886681Y-61442490D01*
X124825358Y-61475975D01*
X124755666Y-61470991D01*
X124699733Y-61429119D01*
X124675316Y-61363655D01*
X124675000Y-61354809D01*
X124675000Y-61277172D01*
X124674999Y-61277155D01*
X124668598Y-61217627D01*
X124668596Y-61217620D01*
X124618354Y-61082913D01*
X124618350Y-61082906D01*
X124532190Y-60967812D01*
X124532187Y-60967809D01*
X124417093Y-60881649D01*
X124417086Y-60881645D01*
X124282379Y-60831403D01*
X124282372Y-60831401D01*
X124222844Y-60825000D01*
X123750000Y-60825000D01*
X123750000Y-61684314D01*
X123745606Y-61679920D01*
X123654394Y-61627259D01*
X123552661Y-61600000D01*
X123447339Y-61600000D01*
X123345606Y-61627259D01*
X123254394Y-61679920D01*
X123250000Y-61684314D01*
X123250000Y-60825000D01*
X122777155Y-60825000D01*
X122717627Y-60831401D01*
X122717620Y-60831403D01*
X122582913Y-60881645D01*
X122582906Y-60881649D01*
X122467812Y-60967809D01*
X122467809Y-60967812D01*
X122381649Y-61082906D01*
X122381645Y-61082913D01*
X122331403Y-61217620D01*
X122331401Y-61217627D01*
X122325000Y-61277155D01*
X122325000Y-61750000D01*
X123184314Y-61750000D01*
X123179920Y-61754394D01*
X123127259Y-61845606D01*
X123100000Y-61947339D01*
X123100000Y-62052661D01*
X123127259Y-62154394D01*
X123179920Y-62245606D01*
X123184314Y-62250000D01*
X122325000Y-62250000D01*
X122325000Y-62722844D01*
X122331401Y-62782372D01*
X122331403Y-62782379D01*
X122381645Y-62917086D01*
X122381649Y-62917093D01*
X122467809Y-63032187D01*
X122467812Y-63032190D01*
X122582906Y-63118350D01*
X122582913Y-63118354D01*
X122717620Y-63168596D01*
X122717627Y-63168598D01*
X122777155Y-63174999D01*
X122777172Y-63175000D01*
X123250000Y-63175000D01*
X123250000Y-62315686D01*
X123254394Y-62320080D01*
X123345606Y-62372741D01*
X123447339Y-62400000D01*
X123552661Y-62400000D01*
X123654394Y-62372741D01*
X123745606Y-62320080D01*
X123750000Y-62315686D01*
X123750000Y-63175000D01*
X124222828Y-63175000D01*
X124222844Y-63174999D01*
X124282372Y-63168598D01*
X124282379Y-63168596D01*
X124417086Y-63118354D01*
X124417093Y-63118350D01*
X124532187Y-63032190D01*
X124532190Y-63032187D01*
X124618350Y-62917093D01*
X124618354Y-62917086D01*
X124668596Y-62782379D01*
X124668598Y-62782372D01*
X124674999Y-62722844D01*
X124675000Y-62722827D01*
X124675000Y-62645190D01*
X124681238Y-62623944D01*
X124682818Y-62601856D01*
X124690890Y-62591072D01*
X124694685Y-62578151D01*
X124711418Y-62563651D01*
X124724690Y-62545923D01*
X124737310Y-62541215D01*
X124747489Y-62532396D01*
X124769406Y-62529244D01*
X124790154Y-62521506D01*
X124803314Y-62524368D01*
X124816647Y-62522452D01*
X124836790Y-62531651D01*
X124858427Y-62536358D01*
X124876152Y-62549626D01*
X124880203Y-62551477D01*
X124886681Y-62557509D01*
X124910781Y-62581609D01*
X124944266Y-62642932D01*
X124947100Y-62669290D01*
X124947100Y-62948719D01*
X124927415Y-63015758D01*
X124910781Y-63036400D01*
X121007971Y-66939209D01*
X121007967Y-66939214D01*
X120989386Y-66971399D01*
X120989386Y-66971400D01*
X120935179Y-67065288D01*
X120925328Y-67102053D01*
X120918563Y-67127300D01*
X120897500Y-67205909D01*
X120897500Y-79164670D01*
X120877815Y-79231709D01*
X120876603Y-79233560D01*
X120871807Y-79240737D01*
X120822591Y-79359555D01*
X120822589Y-79359561D01*
X120797500Y-79485692D01*
X120797500Y-79485695D01*
X120797500Y-79614305D01*
X120797500Y-79614307D01*
X120797499Y-79614307D01*
X118477210Y-79614307D01*
X119581589Y-78509927D01*
X119642910Y-78476444D01*
X119645043Y-78475999D01*
X119653544Y-78474309D01*
X119772364Y-78425092D01*
X119879299Y-78353640D01*
X119970240Y-78262699D01*
X120041692Y-78155764D01*
X120090909Y-78036944D01*
X120108313Y-77949452D01*
X120116000Y-77910807D01*
X120116000Y-77782192D01*
X120090910Y-77656061D01*
X120090909Y-77656060D01*
X120090909Y-77656056D01*
X120041692Y-77537236D01*
X120041691Y-77537235D01*
X120041688Y-77537229D01*
X119970240Y-77430301D01*
X119970237Y-77430297D01*
X119879302Y-77339362D01*
X119879298Y-77339359D01*
X119772370Y-77267911D01*
X119772361Y-77267906D01*
X119672872Y-77226697D01*
X119653544Y-77218691D01*
X119645074Y-77217006D01*
X119583166Y-77184619D01*
X119581590Y-77183071D01*
X113589219Y-71190700D01*
X113555734Y-71129377D01*
X113552900Y-71103019D01*
X113552900Y-65915073D01*
X118786700Y-65915073D01*
X118786700Y-66020527D01*
X118813993Y-66122387D01*
X118858795Y-66199987D01*
X118866721Y-66213714D01*
X118921781Y-66268774D01*
X118955266Y-66330097D01*
X118958100Y-66356455D01*
X118958100Y-75222971D01*
X118961986Y-75232353D01*
X118962470Y-75233521D01*
X118992977Y-75307174D01*
X119088281Y-75402478D01*
X119121766Y-75463801D01*
X119124600Y-75490159D01*
X119124600Y-75568027D01*
X119151893Y-75669887D01*
X119204620Y-75761213D01*
X119279187Y-75835780D01*
X119370513Y-75888507D01*
X119472373Y-75915800D01*
X119472375Y-75915800D01*
X119577825Y-75915800D01*
X119577827Y-75915800D01*
X119679687Y-75888507D01*
X119771013Y-75835780D01*
X119845580Y-75761213D01*
X119898307Y-75669887D01*
X119925600Y-75568027D01*
X119925600Y-75462573D01*
X119898307Y-75360713D01*
X119845580Y-75269387D01*
X119771013Y-75194820D01*
X119679687Y-75142093D01*
X119577827Y-75114800D01*
X119540300Y-75114800D01*
X119473261Y-75095115D01*
X119427506Y-75042311D01*
X119416300Y-74990800D01*
X119416300Y-66356455D01*
X119435985Y-66289416D01*
X119452619Y-66268774D01*
X119507680Y-66213713D01*
X119560407Y-66122387D01*
X119587700Y-66020527D01*
X119587700Y-65915073D01*
X119560407Y-65813213D01*
X119507680Y-65721887D01*
X119433113Y-65647320D01*
X119341787Y-65594593D01*
X119239927Y-65567300D01*
X119134473Y-65567300D01*
X119032613Y-65594593D01*
X119032610Y-65594594D01*
X118941285Y-65647321D01*
X118866721Y-65721885D01*
X118813994Y-65813210D01*
X118813993Y-65813213D01*
X118786700Y-65915073D01*
X113552900Y-65915073D01*
X113552900Y-62775356D01*
X113572585Y-62708317D01*
X113589219Y-62687675D01*
X113701325Y-62575568D01*
X113701328Y-62575565D01*
X113800140Y-62427684D01*
X113868202Y-62263366D01*
X113874868Y-62229852D01*
X113885890Y-62174446D01*
X113885890Y-62174445D01*
X113902899Y-62088932D01*
X113902900Y-62088930D01*
X113902900Y-61911069D01*
X113902899Y-61911067D01*
X113868204Y-61736641D01*
X113868201Y-61736632D01*
X113800142Y-61572320D01*
X113800141Y-61572318D01*
X113701328Y-61424435D01*
X113701325Y-61424431D01*
X113575568Y-61298674D01*
X113575564Y-61298671D01*
X113427681Y-61199858D01*
X113427679Y-61199857D01*
X113263367Y-61131798D01*
X113263358Y-61131795D01*
X113088931Y-61097100D01*
X113088928Y-61097100D01*
X112911072Y-61097100D01*
X112911069Y-61097100D01*
X112736641Y-61131795D01*
X112736632Y-61131798D01*
X112572320Y-61199857D01*
X112572318Y-61199858D01*
X112424435Y-61298671D01*
X112424431Y-61298674D01*
X112298674Y-61424431D01*
X112298671Y-61424435D01*
X112199858Y-61572318D01*
X112199857Y-61572320D01*
X112131798Y-61736632D01*
X112131795Y-61736641D01*
X112097100Y-61911067D01*
X112097100Y-62088932D01*
X112131795Y-62263358D01*
X112131798Y-62263367D01*
X112199857Y-62427679D01*
X112199858Y-62427681D01*
X112298671Y-62575564D01*
X112298674Y-62575568D01*
X112410781Y-62687675D01*
X112444266Y-62748998D01*
X112447100Y-62775356D01*
X112447100Y-71456195D01*
X112452782Y-71477400D01*
X112452783Y-71477400D01*
X112484779Y-71596812D01*
X112484780Y-71596813D01*
X112484779Y-71596813D01*
X112499157Y-71621715D01*
X112504746Y-71631395D01*
X112556466Y-71720977D01*
X112557571Y-71722890D01*
X112667576Y-71832895D01*
X112667581Y-71832899D01*
X118593501Y-77758820D01*
X118626985Y-77820141D01*
X118622001Y-77889833D01*
X118593500Y-77934180D01*
X116680302Y-79847378D01*
X116680293Y-79847387D01*
X116677913Y-79849768D01*
X116677911Y-79849770D01*
X116574970Y-79952711D01*
X116561755Y-79975600D01*
X116555304Y-79986771D01*
X116555303Y-79986774D01*
X116502178Y-80078789D01*
X116489563Y-80125872D01*
X116464500Y-80219409D01*
X116464500Y-80301398D01*
X116444815Y-80368437D01*
X116392011Y-80414192D01*
X116322853Y-80424136D01*
X116259297Y-80395111D01*
X116252819Y-80389079D01*
X116250002Y-80386262D01*
X116249998Y-80386259D01*
X116143070Y-80314811D01*
X116143061Y-80314806D01*
X116024244Y-80265591D01*
X116024238Y-80265589D01*
X115898107Y-80240500D01*
X115898105Y-80240500D01*
X115769495Y-80240500D01*
X115769493Y-80240500D01*
X115643361Y-80265589D01*
X115643355Y-80265591D01*
X115524538Y-80314806D01*
X115524529Y-80314811D01*
X115417601Y-80386259D01*
X115417597Y-80386262D01*
X115326662Y-80477197D01*
X115326659Y-80477201D01*
X115255211Y-80584129D01*
X115255206Y-80584138D01*
X115205991Y-80702955D01*
X115205990Y-80702958D01*
X115204306Y-80711425D01*
X115171918Y-80773334D01*
X115170371Y-80774909D01*
X114952579Y-80992701D01*
X114952571Y-80992709D01*
X114949913Y-80995368D01*
X114949911Y-80995370D01*
X114846970Y-81098311D01*
X114830526Y-81126793D01*
X114824273Y-81137622D01*
X114824273Y-81137623D01*
X114774178Y-81224388D01*
X114774177Y-81224391D01*
X114769022Y-81243628D01*
X114769023Y-81243629D01*
X114736500Y-81365009D01*
X114736500Y-86282300D01*
X114716815Y-86349339D01*
X114664011Y-86395094D01*
X114612500Y-86406300D01*
X112912907Y-86406300D01*
X112855341Y-86421724D01*
X112855342Y-86421725D01*
X112772286Y-86443979D01*
X112772285Y-86443980D01*
X112646215Y-86516767D01*
X112646209Y-86516771D01*
X111337078Y-87825902D01*
X111296851Y-87852781D01*
X111219542Y-87884804D01*
X111219538Y-87884806D01*
X111112600Y-87956259D01*
X111021662Y-88047197D01*
X111021659Y-88047201D01*
X110950211Y-88154129D01*
X110950206Y-88154138D01*
X110900991Y-88272955D01*
X110900989Y-88272961D01*
X110875900Y-88399092D01*
X110875900Y-88399095D01*
X110875900Y-88527705D01*
X110875900Y-88527707D01*
X110875899Y-88527707D01*
X110900989Y-88653838D01*
X110900991Y-88653844D01*
X110950206Y-88772661D01*
X110950211Y-88772670D01*
X111021659Y-88879598D01*
X111021662Y-88879602D01*
X111112599Y-88970539D01*
X111117478Y-88973799D01*
X111162282Y-89027412D01*
X111170988Y-89096738D01*
X111140832Y-89159764D01*
X111081388Y-89196482D01*
X111048585Y-89200900D01*
X110591828Y-89200900D01*
X110567168Y-89211112D01*
X110567169Y-89211113D01*
X110507626Y-89235777D01*
X110507623Y-89235779D01*
X108434380Y-91309022D01*
X108434376Y-91309028D01*
X108415414Y-91354808D01*
X108399500Y-91393225D01*
X108399500Y-91726040D01*
X108379815Y-91793079D01*
X108363181Y-91813721D01*
X107305778Y-92871123D01*
X107303439Y-92876772D01*
X107296085Y-92894529D01*
X107296084Y-92894531D01*
X107270900Y-92955328D01*
X107270900Y-96534750D01*
X107251215Y-96601789D01*
X107198411Y-96647544D01*
X107194352Y-96649311D01*
X107072320Y-96699857D01*
X107072318Y-96699858D01*
X106924435Y-96798671D01*
X106924431Y-96798674D01*
X106798674Y-96924431D01*
X106798671Y-96924435D01*
X106699858Y-97072318D01*
X106699857Y-97072320D01*
X106631798Y-97236632D01*
X106631795Y-97236641D01*
X106597100Y-97411067D01*
X106597100Y-97588932D01*
X106631795Y-97763358D01*
X106631798Y-97763367D01*
X106699857Y-97927679D01*
X106699858Y-97927681D01*
X106798671Y-98075564D01*
X106798674Y-98075568D01*
X106924431Y-98201325D01*
X106924435Y-98201328D01*
X107072316Y-98300140D01*
X107072317Y-98300140D01*
X107072318Y-98300141D01*
X107072320Y-98300142D01*
X107181861Y-98345514D01*
X107236634Y-98368202D01*
X107236636Y-98368202D01*
X107236641Y-98368204D01*
X107411067Y-98402899D01*
X107411070Y-98402900D01*
X107411072Y-98402900D01*
X107588930Y-98402900D01*
X107588931Y-98402899D01*
X107647074Y-98391334D01*
X107763358Y-98368204D01*
X107763361Y-98368202D01*
X107763366Y-98368202D01*
X107927684Y-98300140D01*
X108075565Y-98201328D01*
X108201328Y-98075565D01*
X108300140Y-97927684D01*
X108368202Y-97763366D01*
X108402900Y-97588928D01*
X108402900Y-97411072D01*
X108402900Y-97411069D01*
X108402899Y-97411067D01*
X108368204Y-97236641D01*
X108368201Y-97236632D01*
X108300142Y-97072320D01*
X108300141Y-97072318D01*
X108201328Y-96924435D01*
X108201325Y-96924431D01*
X108075568Y-96798674D01*
X108075564Y-96798671D01*
X107927681Y-96699858D01*
X107927679Y-96699857D01*
X107805648Y-96649311D01*
X107751244Y-96605470D01*
X107729179Y-96539176D01*
X107729100Y-96534750D01*
X107729100Y-93147158D01*
X107748785Y-93080119D01*
X107765419Y-93059477D01*
X108618019Y-92206877D01*
X108637455Y-92196264D01*
X108654189Y-92181764D01*
X108667520Y-92179847D01*
X108679342Y-92173392D01*
X108701428Y-92174971D01*
X108723347Y-92171820D01*
X108735598Y-92177415D01*
X108749034Y-92178376D01*
X108766760Y-92191646D01*
X108786903Y-92200845D01*
X108794185Y-92212176D01*
X108804967Y-92220248D01*
X108812704Y-92240993D01*
X108824677Y-92259623D01*
X108827828Y-92281541D01*
X108829384Y-92285712D01*
X108829700Y-92294558D01*
X108829700Y-92490445D01*
X108810015Y-92557484D01*
X108793381Y-92578126D01*
X108738321Y-92633185D01*
X108685594Y-92724510D01*
X108685593Y-92724513D01*
X108658300Y-92826373D01*
X108658300Y-92931827D01*
X108685433Y-93033087D01*
X108685593Y-93033686D01*
X108685594Y-93033689D01*
X108699722Y-93058159D01*
X108738320Y-93125013D01*
X108812887Y-93199580D01*
X108904213Y-93252307D01*
X109006073Y-93279600D01*
X109006075Y-93279600D01*
X109111525Y-93279600D01*
X109111527Y-93279600D01*
X109213387Y-93252307D01*
X109304713Y-93199580D01*
X109304717Y-93199575D01*
X109306499Y-93198547D01*
X109374399Y-93182074D01*
X109440426Y-93204926D01*
X109483617Y-93259847D01*
X109492500Y-93305934D01*
X109492500Y-95046045D01*
X109472815Y-95113084D01*
X109456181Y-95133726D01*
X109401121Y-95188785D01*
X109348394Y-95280110D01*
X109348393Y-95280113D01*
X109321100Y-95381973D01*
X109321100Y-95487427D01*
X109348393Y-95589287D01*
X109401120Y-95680613D01*
X109475687Y-95755180D01*
X109567013Y-95807907D01*
X109668873Y-95835200D01*
X109668875Y-95835200D01*
X109774325Y-95835200D01*
X109774327Y-95835200D01*
X109876187Y-95807907D01*
X109925386Y-95779501D01*
X109993285Y-95763028D01*
X110059312Y-95785880D01*
X110102503Y-95840800D01*
X110107161Y-95854794D01*
X110118493Y-95897088D01*
X110118494Y-95897089D01*
X110171220Y-95988413D01*
X110245787Y-96062980D01*
X110337113Y-96115707D01*
X110438973Y-96143000D01*
X110438975Y-96143000D01*
X110544425Y-96143000D01*
X110544427Y-96143000D01*
X110646287Y-96115707D01*
X110737613Y-96062980D01*
X110812180Y-95988413D01*
X110864907Y-95897087D01*
X110892200Y-95795227D01*
X110892200Y-95689773D01*
X110864907Y-95587913D01*
X110812180Y-95496587D01*
X110757119Y-95441526D01*
X110723634Y-95380203D01*
X110720800Y-95353845D01*
X110720800Y-94262021D01*
X110740485Y-94194982D01*
X110793289Y-94149227D01*
X110862447Y-94139283D01*
X110906584Y-94157878D01*
X110907949Y-94155516D01*
X110914985Y-94159578D01*
X110914987Y-94159580D01*
X111006313Y-94212307D01*
X111108173Y-94239600D01*
X111108175Y-94239600D01*
X111213625Y-94239600D01*
X111213627Y-94239600D01*
X111315487Y-94212307D01*
X111406813Y-94159580D01*
X111481380Y-94085013D01*
X111502935Y-94047677D01*
X111553498Y-93999465D01*
X111622104Y-93986240D01*
X111686970Y-94012207D01*
X111698001Y-94021998D01*
X114655467Y-96979463D01*
X114688952Y-97040786D01*
X114683968Y-97110478D01*
X114682347Y-97114596D01*
X114631798Y-97236632D01*
X114631795Y-97236641D01*
X114597100Y-97411067D01*
X114597100Y-97588932D01*
X114631795Y-97763358D01*
X114631798Y-97763367D01*
X114699857Y-97927679D01*
X114699858Y-97927681D01*
X114798671Y-98075564D01*
X114798674Y-98075568D01*
X114924431Y-98201325D01*
X114924435Y-98201328D01*
X115072316Y-98300140D01*
X115072317Y-98300140D01*
X115072318Y-98300141D01*
X115072320Y-98300142D01*
X115181861Y-98345514D01*
X115236634Y-98368202D01*
X115236636Y-98368202D01*
X115236641Y-98368204D01*
X115411067Y-98402899D01*
X115411070Y-98402900D01*
X115411072Y-98402900D01*
X115588930Y-98402900D01*
X115588931Y-98402899D01*
X115647074Y-98391334D01*
X115763358Y-98368204D01*
X115763361Y-98368202D01*
X115763366Y-98368202D01*
X115927684Y-98300140D01*
X116075565Y-98201328D01*
X116201328Y-98075565D01*
X116300140Y-97927684D01*
X116368202Y-97763366D01*
X116402900Y-97588928D01*
X116402900Y-97411072D01*
X116402900Y-97411069D01*
X116402899Y-97411067D01*
X116368204Y-97236641D01*
X116368201Y-97236632D01*
X116300142Y-97072320D01*
X116300141Y-97072318D01*
X116201328Y-96924435D01*
X116201325Y-96924431D01*
X116075568Y-96798674D01*
X116075564Y-96798671D01*
X115927681Y-96699858D01*
X115927679Y-96699857D01*
X115763367Y-96631798D01*
X115763358Y-96631795D01*
X115588931Y-96597100D01*
X115588928Y-96597100D01*
X115411072Y-96597100D01*
X115411069Y-96597100D01*
X115236641Y-96631795D01*
X115236632Y-96631798D01*
X115114596Y-96682347D01*
X115045127Y-96689816D01*
X114982648Y-96658540D01*
X114979463Y-96655467D01*
X112159119Y-93835122D01*
X112125634Y-93773799D01*
X112122800Y-93747441D01*
X112122800Y-92318755D01*
X112142485Y-92251716D01*
X112159119Y-92231074D01*
X112185719Y-92204474D01*
X112214180Y-92176013D01*
X112266907Y-92084687D01*
X112294200Y-91982827D01*
X112294200Y-91877373D01*
X112266907Y-91775513D01*
X112214180Y-91684187D01*
X112139613Y-91609620D01*
X112048287Y-91556893D01*
X111946427Y-91529600D01*
X111840973Y-91529600D01*
X111739113Y-91556893D01*
X111739110Y-91556894D01*
X111647785Y-91609621D01*
X111601681Y-91655726D01*
X111582244Y-91666338D01*
X111565511Y-91680839D01*
X111552179Y-91682755D01*
X111540358Y-91689211D01*
X111518271Y-91687631D01*
X111496353Y-91690783D01*
X111484101Y-91685187D01*
X111470666Y-91684227D01*
X111452939Y-91670956D01*
X111432797Y-91661758D01*
X111425514Y-91650426D01*
X111414733Y-91642355D01*
X111406995Y-91621609D01*
X111395023Y-91602980D01*
X111391871Y-91581061D01*
X111390316Y-91576891D01*
X111390000Y-91568045D01*
X111390000Y-91434011D01*
X111409685Y-91366972D01*
X111451997Y-91326626D01*
X111494513Y-91302080D01*
X111569080Y-91227513D01*
X111621807Y-91136187D01*
X111649100Y-91034327D01*
X111649100Y-90928873D01*
X111639673Y-90893690D01*
X111641336Y-90823844D01*
X111680498Y-90765981D01*
X111744726Y-90738477D01*
X111759448Y-90737600D01*
X115704141Y-90737600D01*
X115771180Y-90757285D01*
X115791822Y-90773919D01*
X116039325Y-91021422D01*
X116039330Y-91021424D01*
X116088493Y-91041788D01*
X116088494Y-91041788D01*
X116123529Y-91056300D01*
X116123530Y-91056300D01*
X116214670Y-91056300D01*
X116663841Y-91056300D01*
X116730880Y-91075985D01*
X116751522Y-91092619D01*
X117689732Y-92030829D01*
X118622574Y-92963670D01*
X118656059Y-93024993D01*
X118651075Y-93094685D01*
X118622576Y-93139031D01*
X118602520Y-93159087D01*
X118549794Y-93250410D01*
X118549793Y-93250413D01*
X118522500Y-93352273D01*
X118522500Y-93457727D01*
X118547955Y-93552725D01*
X118549793Y-93559586D01*
X118549794Y-93559589D01*
X118558741Y-93575086D01*
X118602520Y-93650913D01*
X118677087Y-93725480D01*
X118768413Y-93778207D01*
X118870273Y-93805500D01*
X118870275Y-93805500D01*
X118975725Y-93805500D01*
X118975727Y-93805500D01*
X119077587Y-93778207D01*
X119168913Y-93725480D01*
X119243480Y-93650913D01*
X119296207Y-93559587D01*
X119323500Y-93457727D01*
X119323500Y-93352273D01*
X119296207Y-93250413D01*
X119243480Y-93159087D01*
X119188419Y-93104026D01*
X119177595Y-93084204D01*
X119162929Y-93067024D01*
X119159531Y-93051121D01*
X119154934Y-93042703D01*
X119153235Y-93033087D01*
X119152100Y-93024757D01*
X119152100Y-92894529D01*
X119131794Y-92845507D01*
X119125655Y-92830686D01*
X119125655Y-92830684D01*
X119117224Y-92810331D01*
X119117222Y-92810326D01*
X118099975Y-91793079D01*
X117075519Y-90768622D01*
X117042034Y-90707299D01*
X117039200Y-90680941D01*
X117039200Y-89790280D01*
X117058885Y-89723241D01*
X117111689Y-89677486D01*
X117180847Y-89667542D01*
X117244403Y-89696567D01*
X117250881Y-89702599D01*
X118745768Y-91197486D01*
X118745770Y-91197489D01*
X118848711Y-91300430D01*
X118906418Y-91333747D01*
X118974788Y-91373221D01*
X119030594Y-91388174D01*
X119115409Y-91410900D01*
X119115410Y-91410900D01*
X119260990Y-91410900D01*
X123477364Y-91410900D01*
X123544403Y-91430585D01*
X123590158Y-91483389D01*
X123600102Y-91552547D01*
X123584751Y-91596900D01*
X123568694Y-91624710D01*
X123568693Y-91624713D01*
X123541400Y-91726573D01*
X123541400Y-91832027D01*
X123565639Y-91922487D01*
X123568693Y-91933886D01*
X123568694Y-91933889D01*
X123579680Y-91952917D01*
X123614838Y-92013813D01*
X123621421Y-92025214D01*
X123676481Y-92080274D01*
X123709966Y-92141597D01*
X123712800Y-92167955D01*
X123712800Y-96473100D01*
X123693115Y-96540139D01*
X123640311Y-96585894D01*
X123588800Y-96597100D01*
X123411069Y-96597100D01*
X123236641Y-96631795D01*
X123236632Y-96631798D01*
X123072320Y-96699857D01*
X123072318Y-96699858D01*
X122924435Y-96798671D01*
X122924431Y-96798674D01*
X122798674Y-96924431D01*
X122798671Y-96924435D01*
X122699858Y-97072318D01*
X122699857Y-97072320D01*
X122631798Y-97236632D01*
X122631796Y-97236640D01*
X122600178Y-97395594D01*
X122567793Y-97457505D01*
X122507077Y-97492079D01*
X122437308Y-97488339D01*
X122390880Y-97459083D01*
X121002719Y-96070922D01*
X120969234Y-96009599D01*
X120966400Y-95983241D01*
X120966400Y-92557055D01*
X120986085Y-92490016D01*
X121002719Y-92469374D01*
X121014515Y-92457578D01*
X121057780Y-92414313D01*
X121110507Y-92322987D01*
X121137800Y-92221127D01*
X121137800Y-92115673D01*
X121110507Y-92013813D01*
X121057780Y-91922487D01*
X120983213Y-91847920D01*
X120891887Y-91795193D01*
X120790027Y-91767900D01*
X120684573Y-91767900D01*
X120582713Y-91795193D01*
X120582710Y-91795194D01*
X120491385Y-91847921D01*
X120416821Y-91922485D01*
X120364094Y-92013810D01*
X120364093Y-92013813D01*
X120336800Y-92115673D01*
X120336800Y-92221127D01*
X120364093Y-92322987D01*
X120412374Y-92406613D01*
X120416821Y-92414314D01*
X120471881Y-92469374D01*
X120505366Y-92530697D01*
X120508200Y-92557055D01*
X120508200Y-96175068D01*
X120508201Y-96175073D01*
X120543075Y-96259269D01*
X120543076Y-96259271D01*
X120543078Y-96259275D01*
X122964126Y-98680322D01*
X123002614Y-98696264D01*
X123048329Y-98715200D01*
X123048330Y-98715200D01*
X124000969Y-98715200D01*
X124000970Y-98715200D01*
X124000971Y-98715200D01*
X124025633Y-98704984D01*
X124085175Y-98680322D01*
X129075519Y-93689978D01*
X129136842Y-93656493D01*
X129206534Y-93661477D01*
X129262467Y-93703349D01*
X129286884Y-93768813D01*
X129287200Y-93777659D01*
X129287200Y-98539645D01*
X129267515Y-98606684D01*
X129250881Y-98627326D01*
X129195821Y-98682385D01*
X129143094Y-98773710D01*
X129143093Y-98773713D01*
X129115800Y-98875573D01*
X129115800Y-98981027D01*
X129143093Y-99082887D01*
X129195820Y-99174213D01*
X129270387Y-99248780D01*
X129361713Y-99301507D01*
X129463573Y-99328800D01*
X129463575Y-99328800D01*
X129569025Y-99328800D01*
X129569027Y-99328800D01*
X129670887Y-99301507D01*
X129762213Y-99248780D01*
X129836780Y-99174213D01*
X129889507Y-99082887D01*
X129916800Y-98981027D01*
X129916800Y-98875573D01*
X129889507Y-98773713D01*
X129836780Y-98682387D01*
X129781719Y-98627326D01*
X129748234Y-98566003D01*
X129745400Y-98539645D01*
X129745400Y-93922747D01*
X129765085Y-93855708D01*
X129817889Y-93809953D01*
X129837300Y-93802974D01*
X129871887Y-93793707D01*
X129963213Y-93740980D01*
X130037780Y-93666413D01*
X130090507Y-93575087D01*
X130117800Y-93473227D01*
X130117800Y-93367773D01*
X130090507Y-93265913D01*
X130037780Y-93174587D01*
X129963213Y-93100020D01*
X129914402Y-93071839D01*
X129866188Y-93021272D01*
X129852966Y-92952665D01*
X129878934Y-92887800D01*
X129888709Y-92876787D01*
X130096352Y-92669143D01*
X130157673Y-92635660D01*
X130227365Y-92640644D01*
X130283298Y-92682516D01*
X130291414Y-92694820D01*
X130304920Y-92718213D01*
X130379487Y-92792780D01*
X130470813Y-92845507D01*
X130572673Y-92872800D01*
X130572675Y-92872800D01*
X130650541Y-92872800D01*
X130717580Y-92892485D01*
X130738222Y-92909119D01*
X132234581Y-94405477D01*
X132268066Y-94466800D01*
X132270900Y-94493158D01*
X132270900Y-96534750D01*
X132251215Y-96601789D01*
X132198411Y-96647544D01*
X132194352Y-96649311D01*
X132072320Y-96699857D01*
X132072318Y-96699858D01*
X131924435Y-96798671D01*
X131924431Y-96798674D01*
X131798674Y-96924431D01*
X131798671Y-96924435D01*
X131699858Y-97072318D01*
X131699857Y-97072320D01*
X131631798Y-97236632D01*
X131631795Y-97236641D01*
X131597100Y-97411067D01*
X131597100Y-97588932D01*
X131631795Y-97763358D01*
X131631798Y-97763367D01*
X131699857Y-97927679D01*
X131699858Y-97927681D01*
X131798671Y-98075564D01*
X131798674Y-98075568D01*
X131924431Y-98201325D01*
X131924435Y-98201328D01*
X132072316Y-98300140D01*
X132072317Y-98300140D01*
X132072318Y-98300141D01*
X132072320Y-98300142D01*
X132181861Y-98345514D01*
X132236634Y-98368202D01*
X132236636Y-98368202D01*
X132236641Y-98368204D01*
X132411067Y-98402899D01*
X132411070Y-98402900D01*
X132411072Y-98402900D01*
X132588930Y-98402900D01*
X132588931Y-98402899D01*
X132647074Y-98391334D01*
X132763358Y-98368204D01*
X132763361Y-98368202D01*
X132763366Y-98368202D01*
X132927684Y-98300140D01*
X133075565Y-98201328D01*
X133201328Y-98075565D01*
X133300140Y-97927684D01*
X133368202Y-97763366D01*
X133402900Y-97588928D01*
X133402900Y-97490000D01*
X154075000Y-97490000D01*
X155975000Y-97490000D01*
X155975000Y-95400000D01*
X154075000Y-95400000D01*
X154075000Y-97490000D01*
X133402900Y-97490000D01*
X133402900Y-97411072D01*
X133402900Y-97411069D01*
X133402899Y-97411067D01*
X133368204Y-97236641D01*
X133368201Y-97236632D01*
X133300142Y-97072320D01*
X133300141Y-97072318D01*
X133201328Y-96924435D01*
X133201325Y-96924431D01*
X133075568Y-96798674D01*
X133075564Y-96798671D01*
X132927681Y-96699858D01*
X132927679Y-96699857D01*
X132805648Y-96649311D01*
X132751244Y-96605470D01*
X132729179Y-96539176D01*
X132729100Y-96534750D01*
X132729100Y-94301330D01*
X132729099Y-94301327D01*
X132696619Y-94222913D01*
X132694222Y-94217126D01*
X131905324Y-93428228D01*
X131062219Y-92585122D01*
X131050393Y-92563465D01*
X131035034Y-92544150D01*
X131032348Y-92530419D01*
X131028734Y-92523799D01*
X131026527Y-92509897D01*
X131025900Y-92503686D01*
X131025900Y-92419573D01*
X131012273Y-92368718D01*
X131011268Y-92358756D01*
X131015926Y-92333861D01*
X131016529Y-92308542D01*
X131022244Y-92300098D01*
X131024119Y-92290078D01*
X131041494Y-92271655D01*
X131055692Y-92250680D01*
X131065064Y-92246666D01*
X131072060Y-92239250D01*
X131096641Y-92233145D01*
X131119921Y-92223177D01*
X131134641Y-92222300D01*
X131881541Y-92222300D01*
X131948580Y-92241985D01*
X131969222Y-92258619D01*
X133097781Y-93387178D01*
X133131266Y-93448501D01*
X133134100Y-93474859D01*
X133134100Y-93552727D01*
X133161393Y-93654587D01*
X133214120Y-93745913D01*
X133288687Y-93820480D01*
X133380013Y-93873207D01*
X133481873Y-93900500D01*
X133481875Y-93900500D01*
X133587325Y-93900500D01*
X133587327Y-93900500D01*
X133689187Y-93873207D01*
X133780513Y-93820480D01*
X133855080Y-93745913D01*
X133907807Y-93654587D01*
X133935100Y-93552727D01*
X133935100Y-93447273D01*
X133907807Y-93345413D01*
X133855080Y-93254087D01*
X133780513Y-93179520D01*
X133689187Y-93126793D01*
X133587327Y-93099500D01*
X133509459Y-93099500D01*
X133442420Y-93079815D01*
X133421778Y-93063181D01*
X132157575Y-91798978D01*
X132157573Y-91798977D01*
X132098033Y-91774315D01*
X132098032Y-91774314D01*
X132073371Y-91764100D01*
X130402729Y-91764100D01*
X130402728Y-91764100D01*
X130378068Y-91774312D01*
X130378069Y-91774313D01*
X130318526Y-91798977D01*
X130318523Y-91798979D01*
X124614581Y-97502921D01*
X124553258Y-97536406D01*
X124483566Y-97531422D01*
X124427633Y-97489550D01*
X124403216Y-97424086D01*
X124402900Y-97415240D01*
X124402900Y-97411069D01*
X124402899Y-97411067D01*
X124368204Y-97236641D01*
X124368201Y-97236632D01*
X124300142Y-97072320D01*
X124300141Y-97072318D01*
X124201326Y-96924431D01*
X124199142Y-96921770D01*
X124198434Y-96920104D01*
X124197944Y-96919370D01*
X124198083Y-96919276D01*
X124171833Y-96857458D01*
X124171000Y-96843111D01*
X124171000Y-92167955D01*
X124190685Y-92100916D01*
X124207319Y-92080274D01*
X124262380Y-92025213D01*
X124315107Y-91933887D01*
X124342400Y-91832027D01*
X124342400Y-91726573D01*
X124315107Y-91624713D01*
X124299048Y-91596899D01*
X124282576Y-91529000D01*
X124305428Y-91462973D01*
X124360349Y-91419783D01*
X124406436Y-91410900D01*
X147394720Y-91410900D01*
X147461759Y-91430585D01*
X147482400Y-91447218D01*
X149463412Y-93428231D01*
X149589488Y-93501021D01*
X149655169Y-93518620D01*
X149730109Y-93538700D01*
X149730110Y-93538700D01*
X149730111Y-93538700D01*
X150695589Y-93538700D01*
X150695590Y-93538700D01*
X150695591Y-93538700D01*
X150770531Y-93518620D01*
X150836212Y-93501021D01*
X150905183Y-93461200D01*
X150962289Y-93428230D01*
X151065230Y-93325289D01*
X151065230Y-93325287D01*
X151075434Y-93315084D01*
X151075438Y-93315079D01*
X155601881Y-88788636D01*
X155663204Y-88755151D01*
X155732896Y-88760135D01*
X155777243Y-88788636D01*
X155848487Y-88859880D01*
X155939813Y-88912607D01*
X156041673Y-88939900D01*
X156041675Y-88939900D01*
X156147125Y-88939900D01*
X156147127Y-88939900D01*
X156248987Y-88912607D01*
X156340313Y-88859880D01*
X156395374Y-88804819D01*
X156456697Y-88771334D01*
X156483055Y-88768500D01*
X164264770Y-88768500D01*
X164264771Y-88768500D01*
X164295943Y-88755588D01*
X164348975Y-88733622D01*
X168044122Y-85038475D01*
X168077323Y-84958316D01*
X168078817Y-84955044D01*
X168079000Y-84954272D01*
X168079000Y-83294799D01*
X168098685Y-83227760D01*
X168151489Y-83182005D01*
X168220647Y-83172061D01*
X168264999Y-83187411D01*
X168289413Y-83201507D01*
X168391273Y-83228800D01*
X168391275Y-83228800D01*
X168496725Y-83228800D01*
X168496727Y-83228800D01*
X168598587Y-83201507D01*
X168689913Y-83148780D01*
X168764480Y-83074213D01*
X168817207Y-82982887D01*
X168844500Y-82881027D01*
X168844500Y-82775573D01*
X168817207Y-82673713D01*
X168764480Y-82582387D01*
X168709419Y-82527326D01*
X168675934Y-82466003D01*
X168673100Y-82439645D01*
X168673100Y-74972083D01*
X168692785Y-74905044D01*
X168735100Y-74864696D01*
X168746859Y-74857907D01*
X168818613Y-74816480D01*
X168893180Y-74741913D01*
X168897014Y-74735271D01*
X168947580Y-74687057D01*
X169016187Y-74673834D01*
X169081052Y-74699802D01*
X169121580Y-74756717D01*
X169128400Y-74797273D01*
X169128400Y-92941740D01*
X169108715Y-93008779D01*
X169092081Y-93029421D01*
X168540221Y-93581281D01*
X168478898Y-93614766D01*
X168452540Y-93617600D01*
X168374673Y-93617600D01*
X168272813Y-93644893D01*
X168272810Y-93644894D01*
X168181485Y-93697621D01*
X168106921Y-93772185D01*
X168054194Y-93863510D01*
X168054193Y-93863513D01*
X168026900Y-93965373D01*
X168026900Y-94070827D01*
X168054193Y-94172687D01*
X168106920Y-94264013D01*
X168181487Y-94338580D01*
X168272813Y-94391307D01*
X168374673Y-94418600D01*
X168374675Y-94418600D01*
X168480125Y-94418600D01*
X168480127Y-94418600D01*
X168581987Y-94391307D01*
X168673313Y-94338580D01*
X168747880Y-94264013D01*
X168800607Y-94172687D01*
X168827900Y-94070827D01*
X168827900Y-93992958D01*
X168847585Y-93925919D01*
X168864219Y-93905277D01*
X169181151Y-93588345D01*
X169551722Y-93217775D01*
X169586600Y-93133570D01*
X169586600Y-93042430D01*
X169586600Y-74684155D01*
X169606285Y-74617116D01*
X169622919Y-74596474D01*
X169650007Y-74569386D01*
X169677980Y-74541413D01*
X169730707Y-74450087D01*
X169758000Y-74348227D01*
X169758000Y-74341658D01*
X169777685Y-74274619D01*
X169830489Y-74228864D01*
X169899647Y-74218920D01*
X169963203Y-74247945D01*
X169969668Y-74253965D01*
X170128924Y-74413220D01*
X170329581Y-74613877D01*
X170363066Y-74675200D01*
X170365900Y-74701558D01*
X170365900Y-93588345D01*
X170346215Y-93655384D01*
X170329581Y-93676026D01*
X170274521Y-93731085D01*
X170221794Y-93822410D01*
X170221793Y-93822413D01*
X170194500Y-93924273D01*
X170194500Y-94029727D01*
X170221793Y-94131587D01*
X170274520Y-94222913D01*
X170349087Y-94297480D01*
X170440413Y-94350207D01*
X170542273Y-94377500D01*
X170542275Y-94377500D01*
X170647725Y-94377500D01*
X170647727Y-94377500D01*
X170749587Y-94350207D01*
X170840913Y-94297480D01*
X170915480Y-94222913D01*
X170968207Y-94131587D01*
X170995500Y-94029727D01*
X170995500Y-93924273D01*
X170968207Y-93822413D01*
X170915480Y-93731087D01*
X170860419Y-93676026D01*
X170826934Y-93614703D01*
X170824100Y-93588345D01*
X170824100Y-74838755D01*
X170843785Y-74771716D01*
X170896589Y-74725961D01*
X170965747Y-74716017D01*
X171029303Y-74745042D01*
X171035781Y-74751074D01*
X171089887Y-74805180D01*
X171181213Y-74857907D01*
X171283073Y-74885200D01*
X171283075Y-74885200D01*
X171388525Y-74885200D01*
X171388527Y-74885200D01*
X171490387Y-74857907D01*
X171581713Y-74805180D01*
X171656280Y-74730613D01*
X171709007Y-74639287D01*
X171709007Y-74639286D01*
X171713071Y-74632248D01*
X171714375Y-74633001D01*
X171752519Y-74585659D01*
X171818811Y-74563587D01*
X171886512Y-74580860D01*
X171910930Y-74599827D01*
X174625281Y-77314177D01*
X174658766Y-77375500D01*
X174661600Y-77401858D01*
X174661600Y-94127845D01*
X174641915Y-94194884D01*
X174625281Y-94215526D01*
X174570221Y-94270585D01*
X174517494Y-94361910D01*
X174517493Y-94361913D01*
X174490200Y-94463773D01*
X174490200Y-94569227D01*
X174517493Y-94671087D01*
X174570220Y-94762413D01*
X174644787Y-94836980D01*
X174736113Y-94889707D01*
X174837973Y-94917000D01*
X174837975Y-94917000D01*
X174943425Y-94917000D01*
X174943427Y-94917000D01*
X175045287Y-94889707D01*
X175136613Y-94836980D01*
X175211180Y-94762413D01*
X175263907Y-94671087D01*
X175291200Y-94569227D01*
X175291200Y-94463773D01*
X175263907Y-94361913D01*
X175211180Y-94270587D01*
X175156119Y-94215526D01*
X175122634Y-94154203D01*
X175119800Y-94127845D01*
X175119800Y-77210030D01*
X175119799Y-77210026D01*
X175104608Y-77173352D01*
X175104598Y-77173331D01*
X175104586Y-77173300D01*
X175084922Y-77125826D01*
X173543176Y-75584079D01*
X173509692Y-75522758D01*
X173514676Y-75453066D01*
X173556548Y-75397133D01*
X173622012Y-75372716D01*
X173630858Y-75372400D01*
X173659825Y-75372400D01*
X173659827Y-75372400D01*
X173761687Y-75345107D01*
X173853013Y-75292380D01*
X173927580Y-75217813D01*
X173980307Y-75126487D01*
X174007600Y-75024627D01*
X174007600Y-74950937D01*
X174027285Y-74883898D01*
X174080089Y-74838143D01*
X174149247Y-74828199D01*
X174193596Y-74843548D01*
X174245313Y-74873407D01*
X174347173Y-74900700D01*
X174347175Y-74900700D01*
X174452625Y-74900700D01*
X174452627Y-74900700D01*
X174554487Y-74873407D01*
X174645813Y-74820680D01*
X174720380Y-74746113D01*
X174773107Y-74654787D01*
X174800400Y-74552927D01*
X174800400Y-74447473D01*
X174773107Y-74345613D01*
X174720380Y-74254287D01*
X174665319Y-74199226D01*
X174631834Y-74137903D01*
X174629000Y-74111545D01*
X174629000Y-60834055D01*
X174648685Y-60767016D01*
X174665319Y-60746374D01*
X174720380Y-60691313D01*
X174773107Y-60599987D01*
X174800400Y-60498127D01*
X174800400Y-60392673D01*
X174773107Y-60290813D01*
X174756182Y-60261499D01*
X174739710Y-60193600D01*
X174762562Y-60127573D01*
X174817483Y-60084383D01*
X174863570Y-60075500D01*
X179800500Y-60075500D01*
X179867539Y-60095185D01*
X179913294Y-60147989D01*
X179924500Y-60199500D01*
X179924500Y-99800500D01*
X179904815Y-99867539D01*
X179852011Y-99913294D01*
X179800500Y-99924500D01*
X100699500Y-99924500D01*
X100632461Y-99904815D01*
X100586706Y-99852011D01*
X100575500Y-99800500D01*
X100575500Y-89568073D01*
X103605300Y-89568073D01*
X103605300Y-89673527D01*
X103632593Y-89775387D01*
X103684919Y-89866019D01*
X103685321Y-89866714D01*
X103740381Y-89921774D01*
X103773866Y-89983097D01*
X103776700Y-90009455D01*
X103776700Y-98539645D01*
X103757015Y-98606684D01*
X103740381Y-98627326D01*
X103685321Y-98682385D01*
X103632594Y-98773710D01*
X103632593Y-98773713D01*
X103605300Y-98875573D01*
X103605300Y-98981027D01*
X103632593Y-99082887D01*
X103685320Y-99174213D01*
X103759887Y-99248780D01*
X103851213Y-99301507D01*
X103953073Y-99328800D01*
X103953075Y-99328800D01*
X104058525Y-99328800D01*
X104058527Y-99328800D01*
X104160387Y-99301507D01*
X104251713Y-99248780D01*
X104326280Y-99174213D01*
X104379007Y-99082887D01*
X104406300Y-98981027D01*
X104406300Y-98875573D01*
X104379007Y-98773713D01*
X104326280Y-98682387D01*
X104271219Y-98627326D01*
X104237734Y-98566003D01*
X104234900Y-98539645D01*
X104234900Y-90009455D01*
X104254585Y-89942416D01*
X104271219Y-89921774D01*
X104297182Y-89895811D01*
X104326280Y-89866713D01*
X104379007Y-89775387D01*
X104406300Y-89673527D01*
X104406300Y-89568073D01*
X104379007Y-89466213D01*
X104326280Y-89374887D01*
X104251713Y-89300320D01*
X104171635Y-89254087D01*
X104160389Y-89247594D01*
X104160388Y-89247593D01*
X104160387Y-89247593D01*
X104058527Y-89220300D01*
X103953073Y-89220300D01*
X103851213Y-89247593D01*
X103851210Y-89247594D01*
X103759885Y-89300321D01*
X103685321Y-89374885D01*
X103632594Y-89466210D01*
X103632593Y-89466213D01*
X103605300Y-89568073D01*
X100575500Y-89568073D01*
X100575500Y-87026573D01*
X108929100Y-87026573D01*
X108929100Y-87132027D01*
X108956393Y-87233887D01*
X109009120Y-87325213D01*
X109083687Y-87399780D01*
X109175013Y-87452507D01*
X109276873Y-87479800D01*
X109276875Y-87479800D01*
X109382325Y-87479800D01*
X109382327Y-87479800D01*
X109484187Y-87452507D01*
X109575513Y-87399780D01*
X109650080Y-87325213D01*
X109702807Y-87233887D01*
X109730100Y-87132027D01*
X109730100Y-87054158D01*
X109749785Y-86987119D01*
X109766419Y-86966477D01*
X111710623Y-85022273D01*
X113712022Y-83020875D01*
X113746900Y-82936670D01*
X113746900Y-82845530D01*
X113746900Y-80198755D01*
X113766585Y-80131716D01*
X113783219Y-80111074D01*
X113838280Y-80056013D01*
X113891007Y-79964687D01*
X113918300Y-79862827D01*
X113918300Y-79757373D01*
X113891007Y-79655513D01*
X113838280Y-79564187D01*
X113763713Y-79489620D01*
X113672387Y-79436893D01*
X113570527Y-79409600D01*
X113465073Y-79409600D01*
X113363213Y-79436893D01*
X113363210Y-79436894D01*
X113271885Y-79489621D01*
X113197321Y-79564185D01*
X113144594Y-79655510D01*
X113144593Y-79655513D01*
X113117300Y-79757373D01*
X113117300Y-79862827D01*
X113130085Y-79910539D01*
X113144593Y-79964686D01*
X113144594Y-79964689D01*
X113197321Y-80056014D01*
X113252381Y-80111074D01*
X113285866Y-80172397D01*
X113288700Y-80198755D01*
X113288700Y-82744840D01*
X113269015Y-82811879D01*
X113252381Y-82832521D01*
X109442421Y-86642481D01*
X109381098Y-86675966D01*
X109354740Y-86678800D01*
X109276873Y-86678800D01*
X109175013Y-86706093D01*
X109175010Y-86706094D01*
X109083685Y-86758821D01*
X109009121Y-86833385D01*
X108956394Y-86924710D01*
X108956393Y-86924713D01*
X108929100Y-87026573D01*
X100575500Y-87026573D01*
X100575500Y-82623454D01*
X101497100Y-82623454D01*
X101497100Y-82786545D01*
X101528913Y-82946482D01*
X101528916Y-82946491D01*
X101591324Y-83097158D01*
X101591325Y-83097161D01*
X101681927Y-83232755D01*
X101681930Y-83232759D01*
X101797240Y-83348069D01*
X101797244Y-83348072D01*
X101932838Y-83438674D01*
X101932840Y-83438674D01*
X101932842Y-83438676D01*
X102083510Y-83501084D01*
X102083512Y-83501084D01*
X102083517Y-83501086D01*
X102243454Y-83532899D01*
X102243457Y-83532900D01*
X102243459Y-83532900D01*
X102756543Y-83532900D01*
X102756544Y-83532899D01*
X102809857Y-83522294D01*
X102916482Y-83501086D01*
X102916485Y-83501084D01*
X102916490Y-83501084D01*
X103067158Y-83438676D01*
X103202756Y-83348072D01*
X103318072Y-83232756D01*
X103408676Y-83097158D01*
X103471084Y-82946490D01*
X103472181Y-82940978D01*
X103502899Y-82786545D01*
X103502900Y-82786543D01*
X103502900Y-82623456D01*
X103502899Y-82623454D01*
X103471086Y-82463517D01*
X103471083Y-82463508D01*
X103461199Y-82439645D01*
X103408676Y-82312842D01*
X103408674Y-82312840D01*
X103408674Y-82312838D01*
X103318072Y-82177244D01*
X103318069Y-82177240D01*
X103202759Y-82061930D01*
X103202755Y-82061927D01*
X103067161Y-81971325D01*
X103067158Y-81971324D01*
X102916491Y-81908916D01*
X102916482Y-81908913D01*
X102756544Y-81877100D01*
X102756541Y-81877100D01*
X102243459Y-81877100D01*
X102243456Y-81877100D01*
X102083517Y-81908913D01*
X102083508Y-81908916D01*
X101932841Y-81971324D01*
X101932838Y-81971325D01*
X101797244Y-82061927D01*
X101797240Y-82061930D01*
X101681930Y-82177240D01*
X101681927Y-82177244D01*
X101591325Y-82312838D01*
X101591324Y-82312841D01*
X101528916Y-82463508D01*
X101528913Y-82463517D01*
X101497100Y-82623454D01*
X100575500Y-82623454D01*
X100575500Y-77163454D01*
X101497100Y-77163454D01*
X101497100Y-77326545D01*
X101528913Y-77486482D01*
X101528916Y-77486491D01*
X101591324Y-77637158D01*
X101591325Y-77637161D01*
X101681927Y-77772755D01*
X101681930Y-77772759D01*
X101797240Y-77888069D01*
X101797244Y-77888072D01*
X101932838Y-77978674D01*
X101932840Y-77978674D01*
X101932842Y-77978676D01*
X102083510Y-78041084D01*
X102083512Y-78041084D01*
X102083517Y-78041086D01*
X102243454Y-78072899D01*
X102243457Y-78072900D01*
X102243459Y-78072900D01*
X102756543Y-78072900D01*
X102756544Y-78072899D01*
X102809857Y-78062294D01*
X102916482Y-78041086D01*
X102916485Y-78041084D01*
X102916490Y-78041084D01*
X103067158Y-77978676D01*
X103202756Y-77888072D01*
X103318072Y-77772756D01*
X103408676Y-77637158D01*
X103471084Y-77486490D01*
X103471228Y-77485765D01*
X104597100Y-77485765D01*
X104597100Y-77624234D01*
X104624110Y-77760020D01*
X104624113Y-77760032D01*
X104677094Y-77887941D01*
X104677101Y-77887954D01*
X104754021Y-78003072D01*
X104754024Y-78003076D01*
X104851923Y-78100975D01*
X104851927Y-78100978D01*
X104967045Y-78177898D01*
X104967058Y-78177905D01*
X105094967Y-78230886D01*
X105094972Y-78230888D01*
X105171092Y-78246029D01*
X105233002Y-78278413D01*
X105267576Y-78339129D01*
X105270900Y-78367646D01*
X105270900Y-81582353D01*
X105251215Y-81649392D01*
X105198411Y-81695147D01*
X105171092Y-81703970D01*
X105094977Y-81719110D01*
X105094967Y-81719113D01*
X104967058Y-81772094D01*
X104967045Y-81772101D01*
X104851927Y-81849021D01*
X104851923Y-81849024D01*
X104754024Y-81946923D01*
X104754021Y-81946927D01*
X104677101Y-82062045D01*
X104677094Y-82062058D01*
X104624113Y-82189967D01*
X104624110Y-82189979D01*
X104597100Y-82325765D01*
X104597100Y-82464234D01*
X104624110Y-82600020D01*
X104624113Y-82600032D01*
X104677094Y-82727941D01*
X104677101Y-82727954D01*
X104754021Y-82843072D01*
X104754024Y-82843076D01*
X104851923Y-82940975D01*
X104851927Y-82940978D01*
X104967045Y-83017898D01*
X104967058Y-83017905D01*
X105094967Y-83070886D01*
X105094972Y-83070888D01*
X105227040Y-83097158D01*
X105230765Y-83097899D01*
X105230768Y-83097900D01*
X105230770Y-83097900D01*
X105769232Y-83097900D01*
X105769233Y-83097899D01*
X105905028Y-83070888D01*
X106032948Y-83017902D01*
X106148073Y-82940978D01*
X106245978Y-82843073D01*
X106322902Y-82727948D01*
X106375888Y-82600028D01*
X106402900Y-82464230D01*
X106402900Y-82325770D01*
X106402900Y-82325768D01*
X106402900Y-82325767D01*
X106402899Y-82325765D01*
X106400328Y-82312838D01*
X106375888Y-82189972D01*
X106360425Y-82152641D01*
X106322905Y-82062058D01*
X106322898Y-82062045D01*
X106245978Y-81946927D01*
X106245975Y-81946923D01*
X106148076Y-81849024D01*
X106148072Y-81849021D01*
X106032954Y-81772101D01*
X106032941Y-81772094D01*
X105905032Y-81719113D01*
X105905022Y-81719110D01*
X105828908Y-81703970D01*
X105766997Y-81671585D01*
X105732423Y-81610869D01*
X105729100Y-81582353D01*
X105729100Y-78367646D01*
X105748785Y-78300607D01*
X105801589Y-78254852D01*
X105828903Y-78246030D01*
X105905028Y-78230888D01*
X106032948Y-78177902D01*
X106148073Y-78100978D01*
X106245978Y-78003073D01*
X106322902Y-77887948D01*
X106375888Y-77760028D01*
X106402900Y-77624230D01*
X106402900Y-77485770D01*
X106402900Y-77485767D01*
X106402899Y-77485765D01*
X106397796Y-77460110D01*
X106375888Y-77349972D01*
X106366184Y-77326545D01*
X106322905Y-77222058D01*
X106322898Y-77222045D01*
X106245978Y-77106927D01*
X106245975Y-77106923D01*
X106148076Y-77009024D01*
X106148072Y-77009021D01*
X106032954Y-76932101D01*
X106032941Y-76932094D01*
X105905032Y-76879113D01*
X105905020Y-76879110D01*
X105769233Y-76852100D01*
X105769230Y-76852100D01*
X105230770Y-76852100D01*
X105230767Y-76852100D01*
X105094979Y-76879110D01*
X105094967Y-76879113D01*
X104967058Y-76932094D01*
X104967045Y-76932101D01*
X104851927Y-77009021D01*
X104851923Y-77009024D01*
X104754024Y-77106923D01*
X104754021Y-77106927D01*
X104677101Y-77222045D01*
X104677094Y-77222058D01*
X104624113Y-77349967D01*
X104624110Y-77349979D01*
X104597100Y-77485765D01*
X103471228Y-77485765D01*
X103500350Y-77339360D01*
X103502900Y-77326543D01*
X103502900Y-77163456D01*
X103502899Y-77163454D01*
X103471086Y-77003517D01*
X103471083Y-77003508D01*
X103463038Y-76984085D01*
X103408676Y-76852842D01*
X103408674Y-76852840D01*
X103408674Y-76852838D01*
X103318072Y-76717244D01*
X103318069Y-76717240D01*
X103202759Y-76601930D01*
X103202755Y-76601927D01*
X103067161Y-76511325D01*
X103067158Y-76511324D01*
X102916491Y-76448916D01*
X102916482Y-76448913D01*
X102756544Y-76417100D01*
X102756541Y-76417100D01*
X102243459Y-76417100D01*
X102243456Y-76417100D01*
X102083517Y-76448913D01*
X102083508Y-76448916D01*
X101932841Y-76511324D01*
X101932838Y-76511325D01*
X101797244Y-76601927D01*
X101797240Y-76601930D01*
X101681930Y-76717240D01*
X101681927Y-76717244D01*
X101591325Y-76852838D01*
X101591324Y-76852841D01*
X101528916Y-77003508D01*
X101528913Y-77003517D01*
X101497100Y-77163454D01*
X100575500Y-77163454D01*
X100575500Y-74362073D01*
X110138000Y-74362073D01*
X110138000Y-74467527D01*
X110165293Y-74569387D01*
X110218020Y-74660713D01*
X110292587Y-74735280D01*
X110383913Y-74788007D01*
X110485773Y-74815300D01*
X110485775Y-74815300D01*
X110591225Y-74815300D01*
X110591227Y-74815300D01*
X110693087Y-74788007D01*
X110784413Y-74735280D01*
X110858980Y-74660713D01*
X110911707Y-74569387D01*
X110939000Y-74467527D01*
X110939000Y-74464900D01*
X110939626Y-74462765D01*
X110940061Y-74459467D01*
X110940575Y-74459534D01*
X110958685Y-74397861D01*
X111011489Y-74352106D01*
X111063000Y-74340900D01*
X112872345Y-74340900D01*
X112939384Y-74360585D01*
X112960026Y-74377219D01*
X113015087Y-74432280D01*
X113106413Y-74485007D01*
X113208273Y-74512300D01*
X113208275Y-74512300D01*
X113313725Y-74512300D01*
X113313727Y-74512300D01*
X113415587Y-74485007D01*
X113506913Y-74432280D01*
X113581480Y-74357713D01*
X113634207Y-74266387D01*
X113661500Y-74164527D01*
X113661500Y-74059073D01*
X113634207Y-73957213D01*
X113581480Y-73865887D01*
X113506913Y-73791320D01*
X113415587Y-73738593D01*
X113313727Y-73711300D01*
X113208273Y-73711300D01*
X113106413Y-73738593D01*
X113106410Y-73738594D01*
X113015085Y-73791321D01*
X112960026Y-73846381D01*
X112898703Y-73879866D01*
X112872345Y-73882700D01*
X110795928Y-73882700D01*
X110779085Y-73889677D01*
X110779084Y-73889677D01*
X110766235Y-73895000D01*
X110711726Y-73917578D01*
X110643886Y-73985417D01*
X110635302Y-73991496D01*
X110611802Y-73999560D01*
X110589998Y-74011466D01*
X110571227Y-74013484D01*
X110569215Y-74014175D01*
X110567870Y-74013845D01*
X110563641Y-74014300D01*
X110485773Y-74014300D01*
X110383913Y-74041593D01*
X110383910Y-74041594D01*
X110292585Y-74094321D01*
X110218021Y-74168885D01*
X110165294Y-74260210D01*
X110165293Y-74260213D01*
X110138000Y-74362073D01*
X100575500Y-74362073D01*
X100575500Y-61277155D01*
X106325000Y-61277155D01*
X106325000Y-61750000D01*
X107184314Y-61750000D01*
X107179920Y-61754394D01*
X107127259Y-61845606D01*
X107100000Y-61947339D01*
X107100000Y-62052661D01*
X107127259Y-62154394D01*
X107179920Y-62245606D01*
X107184314Y-62250000D01*
X106325000Y-62250000D01*
X106325000Y-62722844D01*
X106331401Y-62782372D01*
X106331403Y-62782379D01*
X106381645Y-62917086D01*
X106381649Y-62917093D01*
X106467809Y-63032187D01*
X106467812Y-63032190D01*
X106582906Y-63118350D01*
X106582913Y-63118354D01*
X106717620Y-63168596D01*
X106717627Y-63168598D01*
X106777155Y-63174999D01*
X106777172Y-63175000D01*
X107250000Y-63175000D01*
X107250000Y-62315686D01*
X107254394Y-62320080D01*
X107345606Y-62372741D01*
X107447339Y-62400000D01*
X107552661Y-62400000D01*
X107654394Y-62372741D01*
X107745606Y-62320080D01*
X107750000Y-62315686D01*
X107750000Y-63175000D01*
X108222828Y-63175000D01*
X108222844Y-63174999D01*
X108282372Y-63168598D01*
X108282379Y-63168596D01*
X108417086Y-63118354D01*
X108417093Y-63118350D01*
X108532187Y-63032190D01*
X108532190Y-63032187D01*
X108618350Y-62917093D01*
X108618354Y-62917086D01*
X108668596Y-62782379D01*
X108668598Y-62782372D01*
X108674999Y-62722844D01*
X108675000Y-62722827D01*
X108675000Y-62645191D01*
X108694685Y-62578152D01*
X108747489Y-62532397D01*
X108816647Y-62522453D01*
X108880203Y-62551478D01*
X108886681Y-62557510D01*
X108972240Y-62643069D01*
X108972244Y-62643072D01*
X109107838Y-62733674D01*
X109107840Y-62733674D01*
X109107842Y-62733676D01*
X109258510Y-62796084D01*
X109258512Y-62796084D01*
X109258517Y-62796086D01*
X109418454Y-62827899D01*
X109418457Y-62827900D01*
X109418459Y-62827900D01*
X109581543Y-62827900D01*
X109581544Y-62827899D01*
X109634857Y-62817294D01*
X109741482Y-62796086D01*
X109741485Y-62796084D01*
X109741490Y-62796084D01*
X109892158Y-62733676D01*
X110027756Y-62643072D01*
X110143072Y-62527756D01*
X110233676Y-62392158D01*
X110296084Y-62241490D01*
X110327900Y-62081541D01*
X110327900Y-61918459D01*
X110327900Y-61918456D01*
X110327899Y-61918454D01*
X110296086Y-61758517D01*
X110296083Y-61758508D01*
X110292559Y-61750000D01*
X110233676Y-61607842D01*
X110233674Y-61607840D01*
X110233674Y-61607838D01*
X110143072Y-61472244D01*
X110143069Y-61472240D01*
X110027759Y-61356930D01*
X110027755Y-61356927D01*
X109892161Y-61266325D01*
X109892158Y-61266324D01*
X109741491Y-61203916D01*
X109741482Y-61203913D01*
X109581544Y-61172100D01*
X109581541Y-61172100D01*
X109418459Y-61172100D01*
X109418456Y-61172100D01*
X109258517Y-61203913D01*
X109258508Y-61203916D01*
X109107841Y-61266324D01*
X109107838Y-61266325D01*
X108972244Y-61356927D01*
X108972240Y-61356930D01*
X108886681Y-61442490D01*
X108825358Y-61475975D01*
X108755666Y-61470991D01*
X108699733Y-61429119D01*
X108675316Y-61363655D01*
X108675000Y-61354809D01*
X108675000Y-61277172D01*
X108674999Y-61277155D01*
X108668598Y-61217627D01*
X108668596Y-61217620D01*
X108618354Y-61082913D01*
X108618350Y-61082906D01*
X108532190Y-60967812D01*
X108532187Y-60967809D01*
X108417093Y-60881649D01*
X108417086Y-60881645D01*
X108282379Y-60831403D01*
X108282372Y-60831401D01*
X108222844Y-60825000D01*
X107750000Y-60825000D01*
X107750000Y-61684314D01*
X107745606Y-61679920D01*
X107654394Y-61627259D01*
X107552661Y-61600000D01*
X107447339Y-61600000D01*
X107345606Y-61627259D01*
X107254394Y-61679920D01*
X107250000Y-61684314D01*
X107250000Y-60825000D01*
X106777155Y-60825000D01*
X106717627Y-60831401D01*
X106717620Y-60831403D01*
X106582913Y-60881645D01*
X106582906Y-60881649D01*
X106467812Y-60967809D01*
X106467809Y-60967812D01*
X106381649Y-61082906D01*
X106381645Y-61082913D01*
X106331403Y-61217620D01*
X106331401Y-61217627D01*
X106325000Y-61277155D01*
X100575500Y-61277155D01*
X100575500Y-60199500D01*
X100595185Y-60132461D01*
X100647989Y-60086706D01*
X100699500Y-60075500D01*
X142878430Y-60075500D01*
X142945469Y-60095185D01*
G37*
%TD.AperFunction*%
%TA.AperFunction,Conductor*%
G36*
X166326454Y-70748461D02*
G01*
X166384317Y-70787623D01*
X166411823Y-70851850D01*
X166412700Y-70866574D01*
X166412700Y-70954486D01*
X166393015Y-71021525D01*
X166350701Y-71061872D01*
X166322393Y-71078216D01*
X166322384Y-71078222D01*
X166247821Y-71152785D01*
X166195094Y-71244110D01*
X166195093Y-71244113D01*
X166167800Y-71345973D01*
X166167800Y-71451428D01*
X166190184Y-71534968D01*
X166188521Y-71604817D01*
X166149358Y-71662680D01*
X166125335Y-71677126D01*
X166125452Y-71677329D01*
X166027085Y-71734121D01*
X165952521Y-71808685D01*
X165899794Y-71900010D01*
X165899793Y-71900013D01*
X165872500Y-72001873D01*
X165872500Y-72004383D01*
X165871901Y-72006421D01*
X165871439Y-72009933D01*
X165870891Y-72009860D01*
X165852815Y-72071422D01*
X165800011Y-72117177D01*
X165730853Y-72127121D01*
X165716408Y-72124158D01*
X165661328Y-72109400D01*
X165661327Y-72109400D01*
X165555873Y-72109400D01*
X165454013Y-72136693D01*
X165454010Y-72136694D01*
X165362685Y-72189421D01*
X165288121Y-72263985D01*
X165235394Y-72355310D01*
X165235393Y-72355313D01*
X165208100Y-72457173D01*
X165208100Y-72562627D01*
X165232741Y-72654587D01*
X165235393Y-72664486D01*
X165235394Y-72664489D01*
X165244135Y-72679629D01*
X165284106Y-72748861D01*
X165288121Y-72755814D01*
X165343181Y-72810874D01*
X165376666Y-72872197D01*
X165379500Y-72898555D01*
X165379500Y-78006245D01*
X165359815Y-78073284D01*
X165343181Y-78093926D01*
X165288121Y-78148985D01*
X165235394Y-78240310D01*
X165235393Y-78240313D01*
X165208100Y-78342173D01*
X165208100Y-78447627D01*
X165235393Y-78549487D01*
X165288120Y-78640813D01*
X165362687Y-78715380D01*
X165454013Y-78768107D01*
X165555873Y-78795400D01*
X165555875Y-78795400D01*
X165661325Y-78795400D01*
X165661327Y-78795400D01*
X165763187Y-78768107D01*
X165854513Y-78715380D01*
X165929080Y-78640813D01*
X165976711Y-78558312D01*
X166027278Y-78510097D01*
X166095885Y-78496875D01*
X166146179Y-78516661D01*
X166147649Y-78514116D01*
X166154685Y-78518178D01*
X166154687Y-78518180D01*
X166246013Y-78570907D01*
X166347873Y-78598200D01*
X166347875Y-78598200D01*
X166453325Y-78598200D01*
X166453327Y-78598200D01*
X166555187Y-78570907D01*
X166625103Y-78530541D01*
X166692999Y-78514069D01*
X166759026Y-78536921D01*
X166802217Y-78591842D01*
X166811100Y-78637929D01*
X166811100Y-84809167D01*
X166791415Y-84876206D01*
X166738611Y-84921961D01*
X166719194Y-84928942D01*
X166633911Y-84951793D01*
X166633910Y-84951794D01*
X166542585Y-85004521D01*
X166468021Y-85079085D01*
X166415294Y-85170410D01*
X166415293Y-85170413D01*
X166388000Y-85272273D01*
X166388000Y-85377727D01*
X166415293Y-85479587D01*
X166468020Y-85570913D01*
X166542587Y-85645480D01*
X166558936Y-85654919D01*
X166607151Y-85705485D01*
X166620373Y-85774092D01*
X166594405Y-85838957D01*
X166584616Y-85849986D01*
X164160622Y-88273981D01*
X164099299Y-88307466D01*
X164072941Y-88310300D01*
X156483055Y-88310300D01*
X156457593Y-88302823D01*
X156431331Y-88298997D01*
X156421668Y-88292274D01*
X156416016Y-88290615D01*
X156401676Y-88279860D01*
X156398426Y-88277033D01*
X156340313Y-88218920D01*
X156314444Y-88203984D01*
X156305422Y-88196137D01*
X156292774Y-88176375D01*
X156276584Y-88159394D01*
X156274290Y-88147494D01*
X156267758Y-88137287D01*
X156267802Y-88113823D01*
X156263363Y-88090787D01*
X156267867Y-88079536D01*
X156267890Y-88067418D01*
X156280611Y-88047704D01*
X156289332Y-88025923D01*
X156299111Y-88014905D01*
X159619431Y-84694588D01*
X159692221Y-84568512D01*
X159729901Y-84427890D01*
X159729901Y-84282309D01*
X159729901Y-84274714D01*
X159729900Y-84274696D01*
X159729900Y-76358080D01*
X159749585Y-76291041D01*
X159766219Y-76270399D01*
X162477719Y-73558899D01*
X162539042Y-73525414D01*
X162608734Y-73530398D01*
X162664667Y-73572270D01*
X162689084Y-73637734D01*
X162689400Y-73646580D01*
X162689400Y-73951545D01*
X162669715Y-74018584D01*
X162653081Y-74039226D01*
X162598021Y-74094285D01*
X162545294Y-74185610D01*
X162545293Y-74185613D01*
X162518000Y-74287473D01*
X162518000Y-74392927D01*
X162542673Y-74485007D01*
X162545293Y-74494786D01*
X162545294Y-74494789D01*
X162555404Y-74512300D01*
X162598020Y-74586113D01*
X162672587Y-74660680D01*
X162763913Y-74713407D01*
X162865773Y-74740700D01*
X162865775Y-74740700D01*
X162971225Y-74740700D01*
X162971227Y-74740700D01*
X163073087Y-74713407D01*
X163164413Y-74660680D01*
X163238980Y-74586113D01*
X163291707Y-74494787D01*
X163319000Y-74392927D01*
X163319000Y-74287473D01*
X163291707Y-74185613D01*
X163238980Y-74094287D01*
X163183919Y-74039226D01*
X163169215Y-74012298D01*
X163152623Y-73986480D01*
X163151731Y-73980279D01*
X163150434Y-73977903D01*
X163147600Y-73951545D01*
X163147600Y-73763457D01*
X163167285Y-73696418D01*
X163183914Y-73675781D01*
X166071276Y-70788418D01*
X166132599Y-70754934D01*
X166158957Y-70752100D01*
X166236825Y-70752100D01*
X166236827Y-70752100D01*
X166256606Y-70746800D01*
X166326454Y-70748461D01*
G37*
%TD.AperFunction*%
%TD*%
M02*
