M48
; DRILL file {KiCad 9.0.0} date 2025-03-27T14:17:03+0100
; FORMAT={-:-/ absolute / metric / decimal}
; #@! TF.CreationDate,2025-03-27T14:17:03+01:00
; #@! TF.GenerationSoftware,Kicad,Pcbnew,9.0.0
; #@! TF.FileFunction,Plated,1,2,PTH
FMAT,2
METRIC
; #@! TA.AperFunction,Plated,PTH,ViaDrill
T1C0.300
; #@! TA.AperFunction,Plated,PTH,ComponentDrill
T2C0.650
; #@! TA.AperFunction,Plated,PTH,ComponentDrill
T3C0.700
; #@! TA.AperFunction,Plated,PTH,ComponentDrill
T4C0.800
%
G90
G05
T1
X104.006Y-89.621
X104.006Y-98.928
X106.347Y-69.653
X106.637Y-77.083
X106.637Y-81.335
X107.596Y-92.021
X109.059Y-92.879
X109.33Y-87.079
X109.722Y-95.435
X109.866Y-91.288
X110.492Y-92.88
X110.492Y-95.742
X110.538Y-74.415
X110.737Y-80.376
X111.161Y-93.839
X111.249Y-90.982
X111.529Y-88.463
X111.894Y-91.93
X112.815Y-88.244
X113.261Y-74.112
X113.333Y-88.842
X113.518Y-79.81
X115.498Y-88.965
X115.834Y-80.893
X116.335Y-90.349
X117.017Y-87.138
X118.923Y-93.405
X119.187Y-65.968
X119.463Y-77.846
X119.525Y-75.515
X120.34Y-85.872
X120.489Y-87.813
X120.489Y-88.965
X120.737Y-92.168
X121.02Y-90.069
X121.45Y-79.55
X123.942Y-91.779
X126.267Y-65.26
X126.267Y-76.453
X126.267Y-80.587
X127.046Y-78.711
X129.516Y-98.928
X129.547Y-89.958
X129.717Y-93.42
X129.8Y-69.185
X130.557Y-68.69
X130.625Y-92.472
X130.637Y-75.121
X131.375Y-72.5
X132.156Y-74.633
X132.5Y-76.767
X133.535Y-93.5
X134.251Y-78.425
X134.251Y-80.694
X134.292Y-72.5
X134.957Y-71.72
X134.957Y-74.96
X134.957Y-79.501
X136.264Y-69.844
X138.426Y-85.075
X138.682Y-71.077
X139.121Y-71.545
X140.207Y-67.487
X140.207Y-73.209
X140.248Y-75.584
X140.65Y-80.205
X140.915Y-76.23
X141.256Y-71.944
X143.342Y-60.445
X146.937Y-69.046
X147.25Y-71.329
X147.728Y-67.984
X147.806Y-69.744
X148.444Y-76.225
X148.444Y-86.73
X148.68Y-74.69
X150.213Y-87.612
X150.339Y-92.161
X150.4Y-81.5
X151.41Y-77.23
X151.868Y-89.5
X152.03Y-77.1
X152.039Y-86.343
X152.883Y-81.5
X153.127Y-80.179
X153.713Y-87.48
X154.237Y-73.508
X154.846Y-65.421
X155.162Y-74.004
X155.612Y-65.898
X156.094Y-88.539
X156.361Y-75.96
X157.416Y-75.25
X160.156Y-72.312
X160.568Y-71.87
X160.737Y-66.354
X161.056Y-67.349
X161.787Y-69.752
X162.212Y-67.812
X162.918Y-74.34
X163.332Y-71.922
X163.704Y-68.579
X163.787Y-74.049
X163.787Y-78.5
X163.889Y-65.421
X165.306Y-66.045
X165.609Y-72.51
X165.609Y-78.395
X166.159Y-69.152
X166.184Y-70.352
X166.184Y-67.454
X166.201Y-68.176
X166.273Y-72.055
X166.401Y-78.198
X166.568Y-71.399
X166.709Y-69.466
X166.741Y-62.52
X166.788Y-66.999
X166.788Y-85.325
X167.85Y-72.206
X167.85Y-76.864
X168.427Y-94.018
X168.444Y-82.828
X168.573Y-74.496
X169.357Y-74.295
X169.405Y-68.741
X169.818Y-73.778
X169.84Y-72.205
X169.872Y-69.448
X170.482Y-70.369
X170.595Y-93.977
X171.024Y-72.215
X171.336Y-74.485
X171.678Y-72.215
X172.594Y-73.61
X173.11Y-74.392
X173.607Y-61.023
X173.607Y-74.972
X174.4Y-60.445
X174.4Y-74.5
X174.891Y-94.516
T3
X107.5Y-97.5
X113.0Y-62.0
X115.5Y-97.5
X123.5Y-97.5
X129.5Y-62.0
X132.5Y-97.5
T4
X107.5Y-62.0
X109.5Y-62.0
X123.5Y-62.0
X125.5Y-62.0
T2
X105.3Y-77.555G85X105.7Y-77.555
G05
X105.3Y-82.395G85X105.7Y-82.395
G05
T3
X102.25Y-77.245G85X102.75Y-77.245
G05
X102.25Y-82.705G85X102.75Y-82.705
G05
M30
