%TF.GenerationSoftware,KiCad,Pcbnew,9.0.0*%
%TF.CreationDate,2025-03-04T10:40:36+01:00*%
%TF.ProjectId,mdbt_lora_board,6d646274-5f6c-46f7-9261-5f626f617264,v0.2*%
%TF.SameCoordinates,Original*%
%TF.FileFunction,Soldermask,Top*%
%TF.FilePolarity,Negative*%
%FSLAX46Y46*%
G04 Gerber Fmt 4.6, Leading zero omitted, Abs format (unit mm)*
G04 Created by KiCad (PCBNEW 9.0.0) date 2025-03-04 10:40:36*
%MOMM*%
%LPD*%
G01*
G04 APERTURE LIST*
G04 Aperture macros list*
%AMRoundRect*
0 Rectangle with rounded corners*
0 $1 Rounding radius*
0 $2 $3 $4 $5 $6 $7 $8 $9 X,Y pos of 4 corners*
0 Add a 4 corners polygon primitive as box body*
4,1,4,$2,$3,$4,$5,$6,$7,$8,$9,$2,$3,0*
0 Add four circle primitives for the rounded corners*
1,1,$1+$1,$2,$3*
1,1,$1+$1,$4,$5*
1,1,$1+$1,$6,$7*
1,1,$1+$1,$8,$9*
0 Add four rect primitives between the rounded corners*
20,1,$1+$1,$2,$3,$4,$5,0*
20,1,$1+$1,$4,$5,$6,$7,0*
20,1,$1+$1,$6,$7,$8,$9,0*
20,1,$1+$1,$8,$9,$2,$3,0*%
%AMFreePoly0*
4,1,6,0.500000,-0.850000,-0.500000,-0.850000,-0.500000,0.550000,-0.200000,0.850000,0.500000,0.850000,0.500000,-0.850000,0.500000,-0.850000,$1*%
G04 Aperture macros list end*
%ADD10R,1.350000X1.350000*%
%ADD11O,1.350000X1.350000*%
%ADD12RoundRect,0.150000X-0.512500X-0.150000X0.512500X-0.150000X0.512500X0.150000X-0.512500X0.150000X0*%
%ADD13RoundRect,0.200000X0.200000X0.275000X-0.200000X0.275000X-0.200000X-0.275000X0.200000X-0.275000X0*%
%ADD14RoundRect,0.225000X-0.225000X-0.250000X0.225000X-0.250000X0.225000X0.250000X-0.225000X0.250000X0*%
%ADD15RoundRect,0.200000X-0.200000X-0.275000X0.200000X-0.275000X0.200000X0.275000X-0.200000X0.275000X0*%
%ADD16C,1.500000*%
%ADD17RoundRect,0.225000X-0.250000X0.225000X-0.250000X-0.225000X0.250000X-0.225000X0.250000X0.225000X0*%
%ADD18RoundRect,0.225000X0.225000X0.250000X-0.225000X0.250000X-0.225000X-0.250000X0.225000X-0.250000X0*%
%ADD19RoundRect,0.243750X-0.456250X0.243750X-0.456250X-0.243750X0.456250X-0.243750X0.456250X0.243750X0*%
%ADD20R,1.050000X0.650000*%
%ADD21RoundRect,0.225000X0.225000X0.375000X-0.225000X0.375000X-0.225000X-0.375000X0.225000X-0.375000X0*%
%ADD22RoundRect,0.150000X0.150000X-0.512500X0.150000X0.512500X-0.150000X0.512500X-0.150000X-0.512500X0*%
%ADD23RoundRect,0.200000X-0.275000X0.200000X-0.275000X-0.200000X0.275000X-0.200000X0.275000X0.200000X0*%
%ADD24RoundRect,0.225000X0.250000X-0.225000X0.250000X0.225000X-0.250000X0.225000X-0.250000X-0.225000X0*%
%ADD25RoundRect,0.250000X-0.250000X-1.500000X0.250000X-1.500000X0.250000X1.500000X-0.250000X1.500000X0*%
%ADD26RoundRect,0.250001X-0.499999X-1.449999X0.499999X-1.449999X0.499999X1.449999X-0.499999X1.449999X0*%
%ADD27RoundRect,0.200000X0.275000X-0.200000X0.275000X0.200000X-0.275000X0.200000X-0.275000X-0.200000X0*%
%ADD28RoundRect,0.250000X0.250000X-0.275000X0.250000X0.275000X-0.250000X0.275000X-0.250000X-0.275000X0*%
%ADD29RoundRect,0.250000X0.275000X-0.850000X0.275000X0.850000X-0.275000X0.850000X-0.275000X-0.850000X0*%
%ADD30RoundRect,0.150000X-0.825000X-0.150000X0.825000X-0.150000X0.825000X0.150000X-0.825000X0.150000X0*%
%ADD31RoundRect,0.225000X-0.225000X-0.375000X0.225000X-0.375000X0.225000X0.375000X-0.225000X0.375000X0*%
%ADD32RoundRect,0.250000X-0.650000X0.325000X-0.650000X-0.325000X0.650000X-0.325000X0.650000X0.325000X0*%
%ADD33RoundRect,0.250000X0.325000X0.650000X-0.325000X0.650000X-0.325000X-0.650000X0.325000X-0.650000X0*%
%ADD34R,1.200000X0.400000*%
%ADD35R,1.000000X1.800000*%
%ADD36RoundRect,0.218750X-0.218750X-0.256250X0.218750X-0.256250X0.218750X0.256250X-0.218750X0.256250X0*%
%ADD37RoundRect,0.150000X-0.150000X0.512500X-0.150000X-0.512500X0.150000X-0.512500X0.150000X0.512500X0*%
%ADD38R,0.406400X0.609600*%
%ADD39R,0.609600X0.406400*%
%ADD40R,1.650000X0.400000*%
%ADD41R,0.700000X1.825000*%
%ADD42R,1.500000X2.000000*%
%ADD43R,2.000000X1.350000*%
%ADD44O,1.700000X1.350000*%
%ADD45O,1.500000X1.100000*%
%ADD46R,2.500000X1.430000*%
%ADD47RoundRect,0.317500X-0.317500X1.157500X-0.317500X-1.157500X0.317500X-1.157500X0.317500X1.157500X0*%
%ADD48RoundRect,0.150000X0.650000X0.150000X-0.650000X0.150000X-0.650000X-0.150000X0.650000X-0.150000X0*%
%ADD49RoundRect,0.218750X0.218750X0.256250X-0.218750X0.256250X-0.218750X-0.256250X0.218750X-0.256250X0*%
%ADD50R,0.550000X0.250000*%
%ADD51FreePoly0,0.000000*%
%ADD52RoundRect,0.100000X-0.225000X-0.100000X0.225000X-0.100000X0.225000X0.100000X-0.225000X0.100000X0*%
%ADD53R,2.400000X0.740000*%
G04 APERTURE END LIST*
%TO.C,J5*%
G36*
X154085000Y-97490000D02*
G01*
X155965000Y-97490000D01*
X155965000Y-95400000D01*
X154085000Y-95400000D01*
X154085000Y-97490000D01*
G37*
%TD*%
D10*
%TO.C,J2*%
X107500000Y-62000000D03*
D11*
X109500000Y-62000000D03*
%TD*%
D12*
%TO.C,U1*%
X112500000Y-71550000D03*
X112500000Y-72500000D03*
X112500000Y-73450000D03*
X114775000Y-73450000D03*
X114775000Y-71550000D03*
%TD*%
D13*
%TO.C,R12*%
X145000000Y-88000000D03*
X143350000Y-88000000D03*
%TD*%
D14*
%TO.C,C16*%
X104950000Y-94500000D03*
X106500000Y-94500000D03*
%TD*%
D15*
%TO.C,R19*%
X101500000Y-92000000D03*
X103150000Y-92000000D03*
%TD*%
D13*
%TO.C,R1*%
X110425000Y-86200000D03*
X108775000Y-86200000D03*
%TD*%
D15*
%TO.C,R23*%
X101500000Y-94500000D03*
X103150000Y-94500000D03*
%TD*%
D16*
%TO.C,TP5*%
X115500000Y-97500000D03*
%TD*%
D14*
%TO.C,C15*%
X125380000Y-89500000D03*
X126930000Y-89500000D03*
%TD*%
D17*
%TO.C,C6*%
X119000000Y-71330000D03*
X119000000Y-72880000D03*
%TD*%
%TO.C,C21*%
X149500000Y-83950000D03*
X149500000Y-85500000D03*
%TD*%
%TO.C,C35*%
X147500000Y-76225000D03*
X147500000Y-77775000D03*
%TD*%
D18*
%TO.C,C19*%
X167275000Y-98500000D03*
X165725000Y-98500000D03*
%TD*%
D13*
%TO.C,R11*%
X145000000Y-86000000D03*
X143350000Y-86000000D03*
%TD*%
D15*
%TO.C,R5*%
X154850000Y-83500000D03*
X156500000Y-83500000D03*
%TD*%
D17*
%TO.C,C4*%
X113500000Y-75950000D03*
X113500000Y-77500000D03*
%TD*%
D15*
%TO.C,R14*%
X136350000Y-88000000D03*
X138000000Y-88000000D03*
%TD*%
D19*
%TO.C,F1*%
X112755000Y-85432500D03*
X112755000Y-87307500D03*
%TD*%
D20*
%TO.C,SW1*%
X136925000Y-82925000D03*
X141075000Y-82925000D03*
X136925000Y-85075000D03*
X141050000Y-85075000D03*
%TD*%
D14*
%TO.C,C17*%
X105000000Y-92000000D03*
X106550000Y-92000000D03*
%TD*%
D21*
%TO.C,D4*%
X123725000Y-82550000D03*
X120425000Y-82550000D03*
%TD*%
D15*
%TO.C,R32*%
X154850000Y-91500000D03*
X156500000Y-91500000D03*
%TD*%
D22*
%TO.C,U5*%
X126050000Y-84637500D03*
X127000000Y-84637500D03*
X127950000Y-84637500D03*
X127950000Y-82362500D03*
X126050000Y-82362500D03*
%TD*%
D15*
%TO.C,R22*%
X108850000Y-92000000D03*
X110500000Y-92000000D03*
%TD*%
D23*
%TO.C,R13*%
X136500000Y-90350000D03*
X136500000Y-92000000D03*
%TD*%
D24*
%TO.C,C34*%
X141000000Y-70045000D03*
X141000000Y-68495000D03*
%TD*%
D25*
%TO.C,J4*%
X144350000Y-92000000D03*
X146350000Y-92000000D03*
D26*
X142000000Y-97750000D03*
X148700000Y-97750000D03*
%TD*%
D10*
%TO.C,J3*%
X123500000Y-62000000D03*
D11*
X125500000Y-62000000D03*
%TD*%
D27*
%TO.C,R40*%
X129500000Y-77000000D03*
X129500000Y-75350000D03*
%TD*%
D16*
%TO.C,TP4*%
X123500000Y-97500000D03*
%TD*%
D24*
%TO.C,C8*%
X125275000Y-76995000D03*
X125275000Y-75445000D03*
%TD*%
D23*
%TO.C,R6*%
X127500000Y-75350000D03*
X127500000Y-77000000D03*
%TD*%
D15*
%TO.C,R35*%
X151000000Y-87480000D03*
X152650000Y-87480000D03*
%TD*%
D28*
%TO.C,J5*%
X155025000Y-98025000D03*
D29*
X153550000Y-96500000D03*
X156500000Y-96500000D03*
%TD*%
D17*
%TO.C,C5*%
X117000000Y-71330000D03*
X117000000Y-72880000D03*
%TD*%
D18*
%TO.C,C32*%
X168000000Y-76000000D03*
X166450000Y-76000000D03*
%TD*%
D13*
%TO.C,R3*%
X108650000Y-69000000D03*
X107000000Y-69000000D03*
%TD*%
D15*
%TO.C,R16*%
X130500000Y-93500000D03*
X132150000Y-93500000D03*
%TD*%
D30*
%TO.C,U4*%
X117550000Y-89595000D03*
X117550000Y-90865000D03*
X117550000Y-92135000D03*
X117550000Y-93405000D03*
X122500000Y-93405000D03*
X122500000Y-92135000D03*
X122500000Y-90865000D03*
X122500000Y-89595000D03*
%TD*%
D15*
%TO.C,R21*%
X120500000Y-85000000D03*
X122150000Y-85000000D03*
%TD*%
D31*
%TO.C,D1*%
X114850000Y-82500000D03*
X118150000Y-82500000D03*
%TD*%
D15*
%TO.C,R4*%
X154850000Y-85500000D03*
X156500000Y-85500000D03*
%TD*%
D32*
%TO.C,C9*%
X139000000Y-90525000D03*
X139000000Y-93475000D03*
%TD*%
D18*
%TO.C,C27*%
X162500000Y-71000000D03*
X160950000Y-71000000D03*
%TD*%
%TO.C,C10*%
X141400000Y-88000000D03*
X139850000Y-88000000D03*
%TD*%
D33*
%TO.C,C12*%
X128450000Y-92000000D03*
X125500000Y-92000000D03*
%TD*%
D15*
%TO.C,R29*%
X159350000Y-63540000D03*
X161000000Y-63540000D03*
%TD*%
D34*
%TO.C,U14*%
X127800000Y-68055000D03*
X127800000Y-68690000D03*
X127800000Y-69325000D03*
X127800000Y-69960000D03*
X127800000Y-70595000D03*
X127800000Y-71230000D03*
X127800000Y-71865000D03*
X127800000Y-72500000D03*
X133000000Y-72500000D03*
X133000000Y-71865000D03*
X133000000Y-71230000D03*
X133000000Y-70595000D03*
X133000000Y-69960000D03*
X133000000Y-69325000D03*
X133000000Y-68690000D03*
X133000000Y-68055000D03*
%TD*%
D15*
%TO.C,R18*%
X112675000Y-92000000D03*
X114325000Y-92000000D03*
%TD*%
D17*
%TO.C,C3*%
X108000000Y-75950000D03*
X108000000Y-77500000D03*
%TD*%
D15*
%TO.C,R31*%
X154850000Y-89500000D03*
X156500000Y-89500000D03*
%TD*%
D16*
%TO.C,TP1*%
X113000000Y-62000000D03*
%TD*%
D15*
%TO.C,R15*%
X108850000Y-94500000D03*
X110500000Y-94500000D03*
%TD*%
%TO.C,R33*%
X137000000Y-66000000D03*
X138650000Y-66000000D03*
%TD*%
%TO.C,R34*%
X154850000Y-87500000D03*
X156500000Y-87500000D03*
%TD*%
D35*
%TO.C,Y1*%
X152000000Y-81500000D03*
X149500000Y-81500000D03*
%TD*%
D15*
%TO.C,R17*%
X130450000Y-91500000D03*
X132100000Y-91500000D03*
%TD*%
D18*
%TO.C,C7*%
X170000000Y-62000000D03*
X168450000Y-62000000D03*
%TD*%
D24*
%TO.C,C33*%
X143000000Y-70045000D03*
X143000000Y-68495000D03*
%TD*%
D36*
%TO.C,D12*%
X155500000Y-63500000D03*
X157075000Y-63500000D03*
%TD*%
D18*
%TO.C,C1*%
X106550000Y-85500000D03*
X105000000Y-85500000D03*
%TD*%
D16*
%TO.C,TP3*%
X132500000Y-97500000D03*
%TD*%
D37*
%TO.C,Q1*%
X116950000Y-84862500D03*
X115050000Y-84862500D03*
X116000000Y-87137500D03*
%TD*%
D24*
%TO.C,C25*%
X133500000Y-77000000D03*
X133500000Y-75450000D03*
%TD*%
D18*
%TO.C,C23*%
X125000000Y-69500000D03*
X123450000Y-69500000D03*
%TD*%
D36*
%TO.C,D11*%
X155500000Y-61500000D03*
X157075000Y-61500000D03*
%TD*%
D38*
%TO.C,U6*%
X175499999Y-64500002D03*
X174400000Y-64500002D03*
X173599999Y-64500002D03*
X172000001Y-64500002D03*
X171600001Y-65400002D03*
X171200000Y-64500002D03*
X170800000Y-65400002D03*
X170399999Y-64500002D03*
X169999999Y-65400002D03*
X169600001Y-64500002D03*
X169200001Y-65400002D03*
X168800000Y-64500002D03*
X168400000Y-65400002D03*
X168000001Y-64500002D03*
D39*
X164599999Y-64349999D03*
X164599999Y-65150000D03*
X164599999Y-65950001D03*
X164599999Y-66750000D03*
X165499999Y-67150000D03*
X164599999Y-67550001D03*
X165499999Y-67950001D03*
X164599999Y-68349999D03*
X165499999Y-68749999D03*
X164599999Y-69150000D03*
X165499999Y-69550000D03*
X164599999Y-69950001D03*
X165499999Y-70350001D03*
X164599999Y-70749999D03*
X165499999Y-71149999D03*
X164599999Y-71550000D03*
X164599999Y-72349999D03*
X164599999Y-73150000D03*
X164599999Y-73949998D03*
D38*
X165600001Y-73799998D03*
X166400001Y-73799998D03*
X166800001Y-72899998D03*
X167200001Y-73799998D03*
X167600001Y-72899998D03*
X168000000Y-73799998D03*
X168400000Y-72899998D03*
X168800001Y-73799998D03*
X169200001Y-72899998D03*
X169999999Y-72899998D03*
X170399999Y-73799998D03*
X170800000Y-72899998D03*
X171200000Y-73799998D03*
X171600001Y-72899998D03*
X172000001Y-73799998D03*
X172400001Y-72899998D03*
X173199999Y-72899998D03*
X173599999Y-73799998D03*
X174000000Y-72899998D03*
X174400000Y-73799998D03*
X174800000Y-72899998D03*
X175499999Y-73799998D03*
D39*
X171199999Y-67150000D03*
X171199999Y-67950001D03*
X171199999Y-68749999D03*
X171199999Y-69550000D03*
X171199999Y-70350001D03*
X171199999Y-71149999D03*
%TD*%
D15*
%TO.C,R7*%
X107000000Y-66000000D03*
X108650000Y-66000000D03*
%TD*%
D22*
%TO.C,U2*%
X107412500Y-73812500D03*
X109312500Y-73812500D03*
X108362500Y-71537500D03*
%TD*%
D36*
%TO.C,L1*%
X109925000Y-76000000D03*
X111500000Y-76000000D03*
%TD*%
D14*
%TO.C,C14*%
X112725000Y-94500000D03*
X114275000Y-94500000D03*
%TD*%
D40*
%TO.C,J1*%
X105380000Y-78675000D03*
X105380000Y-79325000D03*
X105380000Y-79975000D03*
X105380000Y-80625000D03*
X105380000Y-81275000D03*
D41*
X104180000Y-77025000D03*
D42*
X105480000Y-77125000D03*
D43*
X103430000Y-77245000D03*
D44*
X102500000Y-77245000D03*
D45*
X105500000Y-77555000D03*
D46*
X102230000Y-79015000D03*
X102230000Y-80935000D03*
D45*
X105500000Y-82395000D03*
D44*
X102500000Y-82705000D03*
D43*
X103430000Y-82725000D03*
D42*
X105500000Y-82875000D03*
D41*
X104180000Y-82975000D03*
%TD*%
D18*
%TO.C,C2*%
X112500000Y-79500000D03*
X110950000Y-79500000D03*
%TD*%
D30*
%TO.C,U9*%
X150050000Y-74690000D03*
X150050000Y-75960000D03*
X150050000Y-77230000D03*
X150050000Y-78500000D03*
X155000000Y-78500000D03*
X155000000Y-77230000D03*
X155000000Y-75960000D03*
X155000000Y-74690000D03*
%TD*%
D16*
%TO.C,TP2*%
X129500000Y-62000000D03*
%TD*%
D14*
%TO.C,C11*%
X101500000Y-89500000D03*
X103050000Y-89500000D03*
%TD*%
D47*
%TO.C,U7*%
X173500000Y-80500000D03*
X171500000Y-80500000D03*
X169500000Y-80500000D03*
X167500000Y-80500000D03*
X165500000Y-80500000D03*
X163500000Y-80500000D03*
X161500000Y-80500000D03*
X159500000Y-80500000D03*
X159500000Y-95550000D03*
X161500000Y-95550000D03*
X163500000Y-95550000D03*
X165500000Y-95550000D03*
X167500000Y-95550000D03*
X169500000Y-95550000D03*
X171500000Y-95550000D03*
X173500000Y-95550000D03*
%TD*%
D23*
%TO.C,R41*%
X131500000Y-75350000D03*
X131500000Y-77000000D03*
%TD*%
D15*
%TO.C,R2*%
X104950000Y-87500000D03*
X106600000Y-87500000D03*
%TD*%
%TO.C,R20*%
X112675000Y-89500000D03*
X114325000Y-89500000D03*
%TD*%
D21*
%TO.C,D5*%
X123575000Y-79550000D03*
X120275000Y-79550000D03*
%TD*%
D48*
%TO.C,U10*%
X153100000Y-69795000D03*
X153100000Y-68525000D03*
X153100000Y-67255000D03*
X153100000Y-65985000D03*
X145900000Y-65985000D03*
X145900000Y-67255000D03*
X145900000Y-68525000D03*
X145900000Y-69795000D03*
%TD*%
D14*
%TO.C,C24*%
X130450000Y-89500000D03*
X132000000Y-89500000D03*
%TD*%
D49*
%TO.C,D3*%
X112075000Y-69000000D03*
X110500000Y-69000000D03*
%TD*%
D12*
%TO.C,U3*%
X120487500Y-75050000D03*
X120487500Y-76000000D03*
X120487500Y-76950000D03*
X122762500Y-76950000D03*
X122762500Y-75050000D03*
%TD*%
D18*
%TO.C,C22*%
X162550000Y-73000000D03*
X161000000Y-73000000D03*
%TD*%
D14*
%TO.C,C13*%
X105000000Y-89500000D03*
X106550000Y-89500000D03*
%TD*%
D15*
%TO.C,R36*%
X151000000Y-89500000D03*
X152650000Y-89500000D03*
%TD*%
D16*
%TO.C,TP6*%
X107500000Y-97500000D03*
%TD*%
D50*
%TO.C,U11*%
X137000000Y-68500000D03*
X137000000Y-69000000D03*
X137000000Y-69500000D03*
X137000000Y-70000000D03*
X139350000Y-70000000D03*
X139350000Y-69500000D03*
X139350000Y-69000000D03*
X139350000Y-68500000D03*
D51*
X138175000Y-69250000D03*
%TD*%
D13*
%TO.C,R28*%
X161000000Y-61500000D03*
X159350000Y-61500000D03*
%TD*%
D49*
%TO.C,D6*%
X112035000Y-66000000D03*
X110460000Y-66000000D03*
%TD*%
D15*
%TO.C,R37*%
X151000000Y-91500000D03*
X152650000Y-91500000D03*
%TD*%
D24*
%TO.C,C26*%
X129500000Y-80275000D03*
X129500000Y-78725000D03*
%TD*%
D17*
%TO.C,C20*%
X152000000Y-83950000D03*
X152000000Y-85500000D03*
%TD*%
D52*
%TO.C,D2*%
X108600000Y-88200000D03*
X108600000Y-88850000D03*
X108600000Y-89500000D03*
X110500000Y-89500000D03*
X110500000Y-88850000D03*
X110500000Y-88200000D03*
%TD*%
D53*
%TO.C,J6*%
X138600000Y-74960000D03*
X142500000Y-74960000D03*
X138600000Y-76230000D03*
X142500000Y-76230000D03*
X138600000Y-77500000D03*
X142500000Y-77500000D03*
X138600000Y-78770000D03*
X142500000Y-78770000D03*
X138600000Y-80040000D03*
X142500000Y-80040000D03*
%TD*%
M02*
